<svg version="1.2" xmlns="http://www.w3.org/2000/svg" viewBox="0 0 1920 1080" width="1920" height="1080">
	<title>Novo Projeto</title>
	<style>
		.s0 { fill: #000000 } 
		.s1 { fill: #cc0fd8 } 
		.s2 { fill: #fd0000 } 
		.s3 { fill: #fff5d8 } 
		.s4 { fill: #7c6817 } 
		.s5 { fill: #e7e6e6 } 
		.s6 { fill: #f7f7f7 } 
		.s7 { fill: #878017 } 
		.s8 { fill: #ff1212 } 
		.s9 { fill: #ff0a0a } 
	</style>
	<g id="Background">
		<path id="Path 0" class="s0" d="m469.5 797.7c12.8 0.5 15.5 0.9 32 5.4 9.9 2.7 19.2 5.6 20.8 6.4 1.5 0.8 3.2 1.5 3.7 1.5 0.5 0 3.4 1.6 6.2 3.5 2.9 1.9 6 3.5 6.8 3.5 0.8 0.1 3.1 1.3 5.1 2.8 2 1.5 6.3 4.7 9.5 7.2 3.3 2.4 10.1 8.7 15.2 14 6.2 6.3 10.2 11.4 11.9 15 1.4 3 4.6 8.4 6.9 12 2.4 3.6 5.9 10.1 11.1 22.5l2.6-5.5c1.4-3 4.9-9.1 7.8-13.5 2.8-4.4 6.1-9.1 7.3-10.4 1.2-1.2 2.8-3 3.6-4 0.9-0.9 3.1-3.9 4.9-6.6 1.9-2.8 5.7-7.3 8.6-10 2.8-2.8 6.8-6.4 9-8 2.1-1.7 5.2-4.3 6.9-5.8 1.7-1.5 6.7-5.1 11.1-7.9 4.4-2.8 12-7 17-9.4 5-2.4 9.7-4.4 10.5-4.4 0.9 0 2-0.4 2.5-1 0.6-0.5 6.6-2.6 13.5-4.5 11.3-3.2 13.7-3.5 25.5-3.5 12.4 0 13.8 0.2 30 4.6 9.4 2.6 18.1 5.5 19.5 6.4 1.4 1 3.6 2.1 5 2.5 1.4 0.4 5.1 2.5 8.3 4.6 3.1 2.2 6 3.9 6.4 3.9 0.5 0 3 2.2 5.6 4.8 2.7 2.6 9.9 9.7 15.9 15.7 6.1 6 12.2 13 13.6 15.5 1.5 2.5 4.7 7.7 7.2 11.5 2.5 3.9 5.8 10.4 7.4 14.5 1.5 4.1 3.3 8.4 3.9 9.5 0.6 1.1 1.6 3.1 2.3 4.5 0.7 1.4 2 4.3 3 6.5 0.9 2.2 2.3 5.1 3 6.5 0.7 1.4 1.8 5.4 2.4 9 0.7 3.6 1.5 11.2 1.9 17 0.4 5.8 0.3 15.9-0.1 22.5-0.5 6.6-1.8 15.4-2.9 19.5-1.2 4.1-4.2 11.8-6.7 17-2.4 5.2-6.4 12.6-8.7 16.5-2.3 3.8-6.5 10.6-9.2 15-2.7 4.4-6.7 9.8-8.9 12-2.2 2.2-5.2 5.6-6.5 7.5-1.3 1.9-3.1 4.2-3.9 5.1-0.8 0.9-3.1 3.4-5 5.6-1.9 2.2-4.6 5.3-6 7-1.4 1.6-4.4 4.3-6.8 5.9-2.4 1.6-4.2 3.1-4.2 3.4 0 0.3-3.6 2.4-16.5 9.1l-13.3-0.1c-8.1 0-13.2-0.4-13.2-1 0-0.5 1.2-2.1 2.7-3.5 1.6-1.4 3.7-2.8 4.8-3.1 1.1-0.3 4.5-1.7 7.5-3.1 3-1.4 7.1-3.6 9-4.9 1.9-1.3 4.2-2.4 5-2.4 0.8 0 2.9-1.2 4.5-2.8 1.6-1.5 4.4-3.6 6.2-4.7 1.8-1.1 4-3.3 5-5 1-1.7 3.6-4.8 5.8-7 2.2-2.2 5.1-5.6 6.5-7.5 1.3-1.9 3.3-4.6 4.4-5.9 1.2-1.3 3.3-3.5 4.8-5 1.4-1.4 3.9-4.9 5.6-7.6 1.6-2.8 4.9-8.2 7.2-12 2.4-3.9 6.4-11 8.8-16 2.5-5 5.4-11.7 6.4-15 1.5-4.6 2.1-10.2 2.5-24 0.4-11.9 0.1-20.4-0.6-25-0.7-3.9-1.9-8.6-2.8-10.5-0.8-1.9-2.1-4.7-2.9-6.3-0.8-1.5-1.4-3.3-1.4-4 0-0.6-1-2.8-2.3-4.7-1.3-1.9-2.7-4.9-3.1-6.5-0.4-1.7-1.6-4.9-2.7-7.3-1-2.3-1.9-4.4-1.9-4.7 0-0.3-2.1-3.8-4.8-7.8-2.6-3.9-5.4-8.5-6.2-10-0.8-1.6-6.7-8-13-14.2-6.3-6.2-13.1-12.6-15-14.2-1.9-1.6-4.9-3.9-6.5-5-1.6-1.2-6.1-3.7-10-5.7-3.9-1.9-13.5-5.3-21.5-7.5-13.1-3.7-15.6-4.1-26-4.1-9.8 0-12.9 0.5-21 2.9-5.2 1.6-11.5 3.6-14 4.5-2.5 0.9-7.4 3.1-11 4.9-3.6 1.7-10.2 5.5-14.8 8.4-4.5 2.9-8.2 5.6-8.2 6 0 0.5-1.2 1.5-2.7 2.4-1.6 0.9-4.3 3-6.2 4.5-1.8 1.6-5 4.5-7.1 6.4-2 1.9-5.2 5.7-7.1 8.5-1.8 2.7-4 5.7-4.9 6.6-0.8 1-2.4 2.8-3.6 4-1.1 1.3-4 5.3-6.4 8.9-2.4 3.6-5.9 9.6-7.7 13.5-1.8 3.8-3.3 7.6-3.3 8.2 0 0.7-1.5 4.6-3.4 8.5-1.9 4-4.4 8.3-5.5 9.5-1.2 1.3-3.3 2.6-4.9 2.9-1.9 0.4-3.5 0-5.2-1.3-1.4-1.1-2.8-3.1-3.1-4.4-0.4-1.3-1.9-7.4-3.4-13.4-1.4-6-3.5-12.9-4.6-15.3-1-2.3-1.9-4.4-1.9-4.7 0-0.3-2.2-3.8-4.8-7.8-2.7-3.9-5.8-9.2-6.9-11.7-1.2-2.6-5.8-8.1-10.9-13.3-4.9-4.8-10-9.5-11.4-10.4-1.4-0.9-4.3-3.2-6.5-5-2.2-1.8-4.7-3.3-5.5-3.3-0.8 0-3.9-1.6-6.8-3.5-2.8-1.9-5.8-3.5-6.5-3.5-0.6 0-2.1-0.6-3.2-1.3-1.1-0.8-9.6-3.5-19-6.1-16.7-4.6-17.2-4.6-33-4.8-9.5-0.1-18.2 0.4-21.5 1.1-3 0.7-7.1 1.6-9 2-1.9 0.5-8 2.7-13.5 5-5.5 2.3-12.9 5.6-16.5 7.4-3.5 1.8-7.3 3.9-8.4 4.7-1 0.8-3.7 3.1-5.9 5-2.2 1.9-4.7 4.2-5.6 5.1-0.9 0.9-4 4.3-6.9 7.5-3 3.3-6.2 6.8-7.1 7.9-1 1.1-3.1 4-4.8 6.5-1.6 2.5-4 6.7-5.2 9.5-1.2 2.7-3.3 8.6-4.6 13-1.3 4.4-2.8 9.3-3.4 11-0.5 1.6-1.8 6.6-2.8 11-1.5 6.6-1.8 12.4-1.8 32.5 0 20.7 0.3 25.4 1.8 30.5 1 3.3 2.4 7.3 3.2 9 0.8 1.6 2.8 6 4.4 9.7 1.7 3.8 3.1 7.1 3.1 7.5-0.1 0.5 2.7 5.1 6.1 10.3 3.4 5.2 7.3 10.9 8.8 12.6 1.4 1.8 5.3 6.5 8.6 10.7 3.4 4.1 8.4 9 11.5 11 3 2 6.1 3.7 6.7 3.7 0.7 0 2.8 0.8 4.5 1.7 1.8 0.9 4.4 2.2 5.8 2.8 1.4 0.7 4.7 1.8 7.5 2.5 2.7 0.8 5.9 1.9 7 2.6 1.1 0.7 3.6 1.5 5.5 1.9 1.9 0.4 6.1 2.5 9.2 4.6 3.2 2.2 6.3 4.9 6.9 6.1 0.9 1.7 0.9 3.1 0.1 5.3-0.7 1.7-2.3 3.6-3.7 4.2-1.4 0.7-3.1 1.3-3.8 1.3-0.6 0-3.5-1.5-6.2-3.4-2.8-1.8-6.6-3.7-8.5-4.1-1.9-0.4-4.4-1.2-5.5-1.9-1.1-0.7-4.3-1.8-7-2.6-2.8-0.7-6.1-1.8-7.5-2.5-1.4-0.6-4-1.9-5.8-2.8-1.7-0.9-3.8-1.7-4.5-1.7-0.6 0-4.6-2.3-8.7-5-5.4-3.5-9.5-7.3-14.5-13.6-3.9-4.7-8.2-10-9.6-11.8-1.4-1.7-5.3-7.1-8.5-12.1-3.3-5-6.5-10.1-7.1-11.5-0.6-1.4-2.5-5.7-4.3-9.5-1.7-3.9-3.8-8.4-4.5-10-0.8-1.7-2.5-6.6-3.7-11-2.1-7.4-2.3-9.9-2.3-35 0-22.9 0.3-27.9 1.7-32.8 1-3.1 1.8-6.8 1.8-8.2 0-1.4 0.7-4.2 1.6-6.3 0.9-2 2.9-8.2 4.5-13.7 1.6-5.5 3.4-10.5 3.9-11 0.6-0.6 1-1.7 1-2.5 0-0.8 2.1-4.7 4.6-8.5 2.6-3.9 5.4-7.7 6.3-8.6 0.9-0.9 3-3.4 4.6-5.4 1.6-2.1 6.4-7.2 10.5-11.4 4.1-4.2 9.1-8.8 11-10.1 1.9-1.4 4.3-3.3 5.2-4.2 1-1 2.5-1.8 3.3-1.8 0.8 0 3.2-1.1 5.2-2.5 2.1-1.4 4.5-2.5 5.3-2.5 0.8 0 2.2-0.7 3-1.5 0.8-0.8 2.3-1.5 3.3-1.5 0.9 0 5.9-1.8 10.9-3.9 5.1-2.2 12.2-4.5 15.8-5.1 3.6-0.7 9.4-1.5 13-2 3.6-0.4 12.8-0.5 20.5-0.3z"/>
		<path id="Path 1" class="s1" d="m779.3 882c4.9-0.1 5.4 0.2 9.7 4.7 4.3 4.6 4.7 5.5 14.5 41.3l2.1-4.3c1.1-2.3 3.1-6 4.3-8.2 1.3-2.2 4.5-5.9 7-8.3 2.5-2.4 5.7-4.5 7.1-4.8 1.4-0.3 3.9-0.9 5.5-1.4 1.7-0.5 4.2-1 5.8-1q2.7 0 4.8 2.8c1.7 2.2 2 3.6 1.5 7.7-0.3 2.8-1.9 7.7-3.4 11-1.6 3.3-4.4 7.5-6.3 9.4-1.9 1.8-4.7 4-6.4 4.8-1.6 0.8-4 1.2-5.2 0.9-1.5-0.4-2.3-0.2-2.3 0.7 0 0.6 1.1 1.9 2.5 2.7 2.1 1.2 2.9 1.3 5 0.3 1.4-0.7 3.9-1.3 5.5-1.3 2.1 0 3.6 0.8 5 2.8 1.2 1.5 2.1 3.3 2 4 0 0.6-0.5 2.2-1 3.5-0.6 1.2-2.7 3.2-4.8 4.4-2.6 1.6-5.3 2.2-9.2 2.2-4.5 0.1-6.4-0.5-10.4-3.2-2.7-1.7-5.7-4.4-6.7-5.9-1.1-1.6-2.2-4.9-2.6-7.5-0.5-3.9-0.9-4.6-2-3.5-0.7 0.6-2.5 1.5-4 1.8-2 0.4-3.6 0-5.3-1.3-1.5-1.2-3.1-4.1-5.5-12.3h-4.2c-3.2 0-4.4 0.4-4.8 1.8-0.2 0.9-1.6 2.3-3 3-1.4 0.6-3.1 1.2-3.7 1.2-0.7 0.1-2.6-1-4.2-2.2-2.8-2.3-2.8-2.4-2.1-9.8 0.3-4.1 1.1-10 1.6-13 0.6-3 1.8-8.6 2.7-12.5 0.9-3.9 2.4-7.8 3.4-8.7 1.2-1.3 3.4-1.8 7.1-1.8z"/>
		<path id="Path 2" class="s2" d="m458 966.1c3.6-0.1 6.9 0.2 7.3 0.6 0.5 0.4 2.1 1.3 3.7 1.8 1.6 0.5 7.4 4.9 12.9 9.7 5.6 4.9 10.1 9.1 10.1 9.5-0.1 0.5 2.2 3 5 5.8 2.8 2.7 7.3 8.4 10.1 12.5 4.4 6.6 4.9 7.9 4.4 11-0.4 1.9-1.6 5.1-2.6 7-1.5 2.8-3.5 4.2-9.7 7-4.2 1.9-9.7 3.7-12.2 4.1-2.5 0.4-7.6 1.2-11.5 1.9-4 0.6-10.6 0.8-15.5 0.5-4.7-0.4-13-1.3-18.5-2.1-5.5-0.8-10.9-2.1-12-2.8-1.1-0.7-3.1-1.6-4.5-1.9-1.4-0.3-4.6-2.4-7.3-4.6-3.8-3.3-4.7-4.7-4.7-7.4 0-1.7 1.1-5.6 2.5-8.5 1.4-2.8 2.5-5.7 2.5-6.2 0-0.5 1.6-4.7 3.5-9.3 2.5-6.1 4.9-9.8 9.2-14.3 3.2-3.3 8-7.6 10.8-9.4 2.7-1.9 6.1-3.7 7.5-4.1 1.4-0.4 5.4-0.8 9-0.8zm262.8 3c4.5-0.1 9 0.3 9.9 0.9 1 0.5 3.6 1.7 5.8 2.7 2.1 1 6.1 3.8 8.9 6.3 2.7 2.5 6.6 7 8.6 10 2 3 5.4 9.3 7.4 14 2.1 4.7 4.1 11.2 4.6 14.5 0.7 4.4 0.5 7.3-0.5 11-0.8 2.7-2.7 6.3-4.2 8-1.6 1.8-5 3.7-8.3 4.8-3 1-10.5 2.5-16.5 3.4-7.4 1-14.3 1.3-21 0.9-6.8-0.4-13.9-1.6-22-3.9-6.6-1.8-12.5-3.6-13-4-0.5-0.3-1.7 0.5-2.5 1.8-0.8 1.4-4 3.6-7 5-3 1.3-5.6 2.3-5.7 2.2-0.1-0.1 0.3-1.6 1-3.4 1.1-2.9 1-3.6-0.9-6-1.5-2-3.1-2.9-5.7-3.1-2.6-0.1-4.3 0.4-5.7 1.8-1.2 1.2-2 3.3-2 5.2 0 1.8 0.8 4.1 1.8 5.1 1.6 1.7 1.1 1.8-12.8 1.7-13.2 0-15.7-0.4-27.5-3.4-11.6-3.1-13.3-3.8-15.7-6.8-1.5-1.8-3-4.9-3.4-6.8-0.3-1.9-0.3-5.1 0.1-7 0.4-1.9 2-5.5 3.5-8 1.7-2.7 4.4-5.3 6.7-6.4 2.1-1 4.9-2.4 6.3-3.1 1.4-0.7 4.7-1.8 7.5-2.5 3.5-0.9 8.2-1.1 15.5-0.7 5.8 0.3 11.9 1.1 13.5 1.6 2.5 0.8 2.6 0.9 0.7 1-1.2 0.1-3.1 1-4.2 2.1-1.2 1.2-2 3.3-2 5.5 0 2.7 0.7 4 2.7 5.5 1.6 1.2 3.4 2.1 4 2 0.7 0 2.4-0.6 3.8-1.3 1.4-0.6 3.1-2.6 3.7-4.2 1-2.5 0.9-3.5-0.5-5.8-1.2-1.9-1.3-2.7-0.5-2.7 0.7 0.1 3.1 0.9 5.3 2 2.2 1.1 4.5 1.9 5 1.9 0.5 0 3.1 1.8 5.7 4.1 4.6 3.9 4.8 3.9 5.3 1.7 0.3-1.2 0.5-3.4 0.5-5 0-1.5 1-5.1 2.2-8 1.1-2.8 4.2-8.7 6.7-13 2.8-4.7 6-8.7 8.1-10.1 1.9-1.3 5-3.6 6.7-5.2 1.8-1.6 5.2-3.6 7.5-4.5 2.6-1.1 7.5-1.7 12.5-1.8z"/>
		<path id="Path 3" fill-rule="evenodd" class="s3" d="m0 0h1920v1080h-569.5c-313.2 0-569.5-0.2-569.5-0.5 0-0.3 3.4-2.1 7.5-4 4.1-1.9 7.5-3.8 7.5-4.3-0.1-0.4 1.8-2 4.2-3.6 2.4-1.6 5.4-4.3 6.8-5.9 1.4-1.7 4.1-4.8 6-7 1.9-2.2 4.2-4.7 5-5.6 0.8-0.9 2.6-3.2 3.9-5.1 1.3-1.9 4.3-5.3 6.5-7.5 2.2-2.2 6.2-7.6 8.9-12 2.7-4.4 6.9-11.1 9.2-15 2.3-3.9 6.3-11.3 8.7-16.5 2.5-5.2 5.5-12.9 6.7-17 1.1-4.1 2.4-12.9 2.9-19.5 0.4-6.6 0.5-16.7 0.1-22.5-0.4-5.8-1.2-13.4-1.9-17-0.6-3.6-1.7-7.6-2.4-9-0.7-1.4-2.1-4.3-3-6.5-1-2.2-2.3-5.1-3-6.5-0.7-1.4-1.7-3.4-2.3-4.5-0.6-1.1-2.4-5.4-3.9-9.5-1.6-4.1-4.9-10.6-7.4-14.5-2.5-3.8-5.7-9-7.2-11.5-1.4-2.5-7.5-9.5-13.6-15.5-6-6-13.2-13.1-15.9-15.7-2.6-2.6-5.1-4.8-5.5-4.8-0.5 0-3.4-1.7-6.5-3.9-3.2-2.1-6.9-4.2-8.3-4.6-1.4-0.4-3.6-1.5-5-2.5-1.4-0.9-10.1-3.8-19.5-6.4-16.2-4.4-17.6-4.6-30-4.6-11.8 0-14.2 0.3-25.5 3.5-6.9 1.9-12.9 4-13.5 4.5-0.5 0.6-1.6 1-2.5 1-0.8 0-5.5 2-10.5 4.4-5 2.4-12.6 6.6-17 9.4-4.4 2.8-9.4 6.4-11.1 7.9-1.7 1.5-4.8 4.2-6.9 5.8-2.2 1.6-6.2 5.2-9 8-2.9 2.7-6.7 7.2-8.6 10-1.8 2.7-4 5.7-4.9 6.6-0.8 1-2.4 2.8-3.6 4-1.2 1.3-4.5 6-7.3 10.4-2.9 4.4-6.4 10.5-10.4 19l-3.4-8c-1.8-4.4-5.3-10.9-7.7-14.5-2.3-3.6-5.5-9-6.9-12-1.7-3.6-5.7-8.7-11.9-15-5.1-5.3-11.9-11.6-15.2-14-3.2-2.5-7.5-5.7-9.5-7.2-2-1.5-4.3-2.7-5.1-2.8-0.8 0-3.9-1.6-6.7-3.5-2.9-1.9-5.8-3.5-6.3-3.5-0.5 0-2.2-0.7-3.7-1.5-1.6-0.8-11.1-3.8-39.8-11.6l-17-0.2c-10.7-0.1-19.6 0.4-24 1.2-3.9 0.7-9 1.9-11.5 2.6-2.5 0.7-8.1 2.7-12.5 4.5-4.4 1.8-9.2 3.8-10.8 4.6-1.5 0.8-3.3 1.4-4 1.4-0.6 0-2.9 1.1-5 2.5-2 1.4-4.4 2.5-5.2 2.5-0.8 0-2.3 0.8-3.3 1.8-0.9 0.9-3.3 2.8-5.2 4.2-1.9 1.3-6.9 5.9-11 10.1-4.1 4.2-8.9 9.3-10.5 11.4-1.6 2-3.7 4.5-4.6 5.4-0.9 0.9-3.7 4.7-6.3 8.6-2.5 3.9-4.6 7.7-4.6 8.5 0 0.8-0.4 2-1 2.5-0.5 0.5-2.3 5.5-3.9 11-1.6 5.5-3.6 11.7-4.5 13.7-0.9 2.1-1.6 4.9-1.6 6.3 0 1.4-0.8 5.1-1.8 8.2-1.4 4.9-1.7 9.9-1.7 32.8 0 25.1 0.2 27.6 2.3 35 1.2 4.4 2.9 9.4 3.7 11 0.7 1.6 2.8 6.1 4.5 10 1.8 3.9 3.7 8.1 4.3 9.5 0.6 1.4 3.8 6.5 7.1 11.5 3.2 5 7.1 10.4 8.5 12.1 1.4 1.8 5.7 7.1 9.6 11.8 5 6.3 9.1 10.1 14.5 13.6 4.1 2.7 8.1 5 8.8 5 0.6 0 2.7 0.8 4.4 1.7 1.8 0.9 4.4 2.2 5.8 2.8 1.4 0.7 4.7 1.8 7.5 2.5 2.7 0.8 5.9 1.9 7 2.6 1.1 0.7 3.6 1.5 5.5 1.9 1.9 0.4 5.4 2.1 7.7 3.6 2.4 1.6 4.3 3.1 4.3 3.4 0 0.3-98.6 0.5-438 0.5zm469 812.8c9.7 0.3 14.1 1.1 28.5 4.9 9.4 2.5 17.9 5.2 19 6 1.1 0.7 2.6 1.3 3.2 1.3 0.7 0 3.7 1.6 6.5 3.5 2.9 1.9 6 3.5 6.8 3.5 0.8 0 3.3 1.5 5.5 3.3 2.2 1.8 5.1 4.1 6.5 5 1.4 0.9 6.5 5.6 11.4 10.4 5.1 5.2 9.7 10.7 10.9 13.3 1.1 2.5 4.2 7.8 6.9 11.8 2.6 3.9 4.8 7.4 4.8 7.7 0 0.3 0.9 2.4 1.9 4.8 1.1 2.3 3.2 9.2 4.6 15.2 1.5 6.1 3 12.1 3.4 13.4 0.3 1.3 1.7 3.3 3.1 4.4 1.7 1.3 3.3 1.7 5.2 1.3 1.6-0.3 3.7-1.6 4.9-2.8 1.1-1.3 3.6-5.6 5.5-9.5 1.9-4 3.4-7.9 3.4-8.5 0-0.7 1.5-4.4 3.3-8.3 1.8-3.8 5.3-9.9 7.7-13.5 2.4-3.6 5.3-7.6 6.4-8.9 1.2-1.2 2.8-3 3.6-4 0.9-0.9 3.1-3.8 4.9-6.6 1.9-2.7 5.1-6.6 7.1-8.5 2.1-1.9 5.3-4.8 7.1-6.4 1.9-1.5 4.6-3.6 6.2-4.5 1.5-0.9 2.7-1.9 2.7-2.3 0-0.5 3.7-3.2 8.2-6.1 4.6-2.9 11.2-6.7 14.8-8.4 3.6-1.8 8.5-4 11-4.9 2.5-0.9 8.8-2.9 14-4.5 8.1-2.4 11.2-2.9 21-2.9 10.4 0 12.9 0.4 26 4.1 8 2.2 17.6 5.6 21.5 7.5 3.9 2 8.4 4.5 10 5.7 1.6 1.1 4.6 3.4 6.5 5 1.9 1.6 8.7 8 15 14.2 6.3 6.2 12.2 12.6 13 14.2 0.8 1.5 3.6 6.1 6.2 10.1 2.7 3.9 4.8 7.4 4.8 7.7 0 0.3 0.9 2.4 1.9 4.8 1.1 2.3 2.3 5.6 2.7 7.2 0.4 1.7 1.8 4.6 3.1 6.5 1.3 1.9 2.3 4.2 2.3 5 0.1 0.9-0.7 0.4-2-1.2-1.3-1.9-2.9-2.8-4.8-2.8-1.5 0-4.1 0.5-5.7 1-1.6 0.5-4.1 1.1-5.5 1.4-1.4 0.3-4.6 2.4-7.1 4.8-2.5 2.4-5.7 6.1-7 8.3-1.2 2.2-3.2 5.9-6.4 12.5l-5-18.3c-4.8-17.5-5.2-18.4-9.5-23-4.3-4.5-4.8-4.8-9.8-4.7-3.6 0-5.8 0.5-7 1.8-1 0.9-2.5 4.9-3.4 8.7-0.9 3.9-2.1 9.5-2.7 12.5-0.5 3-1.3 8.9-1.6 13-0.7 7.4-0.7 7.5 2.1 9.8 1.6 1.2 3.5 2.3 4.1 2.2 0.7 0 2.4-0.6 3.8-1.2 1.4-0.7 2.8-2.1 3-3 0.4-1.4 1.6-1.8 9-1.8l1.5 5.1c0.9 3.1 2.5 6 4 7.2 1.7 1.3 3.3 1.7 5.2 1.3 1.6-0.3 3.4-1.2 4.1-1.8 1.1-1.1 1.5-0.4 2 3.5 0.4 2.6 1.5 5.9 2.6 7.5 1 1.5 4 4.2 6.7 5.9 4 2.7 5.9 3.3 10.4 3.2 3.9 0 6.6-0.6 9.2-2.2 2.1-1.2 4.2-3.2 4.8-4.4 0.5-1.3 1-2.9 1-3.5 0.1-0.7-0.8-2.5-2-4-1.4-2-2.9-2.8-5-2.8-1.6 0-4.1 0.6-5.5 1.3-2.1 1-2.9 0.9-5-0.3-1.4-0.8-2.5-2.1-2.5-2.7 0-0.9 0.8-1.1 2.2-0.7 1.3 0.3 3.7-0.1 5.3-0.9 1.6-0.8 4.5-3 6.4-4.8 1.8-1.9 4.5-5.6 5.9-8.4 1.3-2.7 3-7.7 4.9-17l1.3 3c0.7 1.7 1.8 4.4 2.6 6 0.7 1.7 1.8 6.2 2.5 10 0.7 4.6 1 13.1 0.6 25-0.4 13.8-1 19.4-2.5 24-1 3.3-3.9 10.1-6.4 15-2.5 5-5.8 11.3-7.5 14-1.7 2.8-4.9 8.2-7.3 12-2.3 3.9-5.4 8.2-6.9 9.6-1.4 1.5-3.5 3.7-4.7 5-1.1 1.3-3.1 4-4.4 5.9-1.4 1.9-4.3 5.3-6.5 7.5-2.2 2.2-4.8 5.3-5.8 7-1 1.7-3.2 3.9-5 5-1.8 1.1-4.6 3.2-6.2 4.7-1.6 1.6-3.7 2.8-4.5 2.8-0.8 0-3.1 1.1-5 2.4-1.9 1.3-6.2 3.5-9.5 5-3.3 1.5-7.5 3.5-9.4 4.4-1.9 0.9-3.9 2.7-4.5 4-1.1 2.2-1.6 2.3-13.3 2.2-6.8 0-12.3-0.2-12.3-0.5 0-0.3 1.1-2.7 2.5-5.5 1.5-3 2.5-6.7 2.5-9.2 0-2.4-0.4-5.9-0.9-7.8-0.5-1.9-1.2-5.3-2.1-11.5l8.8-1.2c4.8-0.6 11.2-2 14.2-3 3.3-1 6.7-3.1 8.3-4.8 1.5-1.7 3.4-5.2 4.2-8 1-3.7 1.2-6.6 0.5-11-0.5-3.3-2.5-9.8-4.6-14.5-2-4.7-5.4-11-7.4-14-2-3-5.9-7.5-8.6-10-2.8-2.5-6.8-5.3-8.9-6.3-2.2-1-4.8-2.2-5.7-2.7-1-0.6-5.2-1-9.3-1-4.1 0-9.6 0.7-12.2 1.5-2.7 0.8-6.4 2.9-8.3 4.7-1.9 1.7-5.1 4.2-7 5.4-2.1 1.4-5.3 5.3-8.1 10.1-2.5 4.3-5.6 10.2-6.7 13.1-1.2 2.8-2.2 6.4-2.2 8 0 1.5-0.2 3.7-0.5 5-0.5 2.1-0.7 2.1-5.2-1.8-2.7-2.3-5.3-4.1-5.8-4-0.5 0-2.4-0.7-4-1.5-1.6-0.9-6.1-2.5-10-3.6-3.9-1.1-11.7-2.3-17.5-2.6-7.3-0.4-12-0.2-15.5 0.7-2.7 0.7-6.1 1.8-7.5 2.5-1.4 0.7-4.2 2.1-6.3 3.1-2.3 1.1-5 3.7-6.7 6.4-1.5 2.5-3.1 6.1-3.5 8-0.4 1.9-0.4 5.2-0.1 7.3 0.4 2.3 1.8 5 3.9 7.1 2.7 2.7 4.8 3.7 22.2 7.8l0.8 13.9c0.6 11.4 1.1 14.4 4.7 19.9h-65v-20h2.5c1.4 0 6-1.8 10.3-4 5.9-3 8.2-4.8 9.9-7.7 1.1-2.1 2.6-5.7 3.2-8 0.7-2.9 0.8-5.5 0.1-8-0.5-2.1-2.2-5-3.7-6.5-1.5-1.5-4.6-3.6-6.8-4.8-2.2-1.1-5.4-2.3-7-2.6-1.6-0.4-3.5-1-4-1.4-0.5-0.4-3.7-1.4-7-2.3-3.3-0.9-7.4-1.7-9-1.7-1.7 0.1-3.8-0.8-5-2-1.2-1.3-3.2-2.1-5.2-2-1.9 0-4.1 0.8-5.3 2-1.1 1.1-2 2.5-2 3 0 0.6-0.8 1-1.7 1-1 0-2.7 0.6-3.8 1.4-1.1 0.8-4.6 2.1-7.7 3-3.2 0.9-6.1 2.2-6.5 2.9-0.5 0.6-1.9 2.1-5.5 5.2l2-3.5c1.1-1.9 2.3-5.1 2.7-7 0.5-3.1 0-4.4-4.4-11-2.8-4.1-7.3-9.7-10.1-12.5-2.8-2.7-5.1-5.3-5-5.7 0-0.5-4.5-4.7-10.1-9.5-5.5-4.9-10.6-9-11.2-9.2-0.7-0.2-2.8-1-4.7-1.9-2.5-1.1-5.6-1.4-10.6-1.1-6.1 0.3-7.8 0.9-13 4.3-3.2 2.1-8.5 6.6-11.7 10-4.3 4.5-6.7 8.2-9.2 14.4-1.9 4.5-3.5 8.7-3.5 9.2 0 0.6-1.1 3.4-2.5 6.3-1.4 2.8-2.5 6.7-2.5 8.5 0 2.6 0.9 4 4.7 7.3 2.7 2.2 5.9 4.3 7.3 4.6 1.4 0.3 3.4 1.2 4.5 1.9 1.1 0.7 4.9 1.8 8.5 2.4 3.6 0.6 6.6 1.1 6.8 1.3 0.1 0.1-0.4 3.1-1.2 6.7-0.8 3.6-2.1 9.3-2.8 12.7-1.2 6-1.4 6.2-3.3 4.9-1.1-0.7-3.6-1.7-5.5-2.1-1.9-0.4-4.4-1.2-5.5-1.9-1.1-0.7-4.3-1.8-7-2.6-2.8-0.7-6.1-1.8-7.5-2.5-1.4-0.6-4-1.9-5.8-2.8-1.7-0.9-3.8-1.7-4.5-1.7-0.6 0-3.7-1.7-6.7-3.7-3.1-2-8.1-6.9-11.5-11-3.3-4.2-7.2-8.9-8.6-10.7-1.5-1.7-5.4-7.4-8.8-12.6-3.4-5.2-6.2-9.8-6.1-10.2 0-0.5-1.4-3.8-3.1-7.5-1.6-3.8-3.6-8.1-4.4-9.8-0.8-1.6-2.2-5.7-3.2-9-1.5-5.1-1.8-9.8-1.8-30.5 0-20.1 0.3-25.9 1.8-32.5 1-4.4 2.3-9.3 2.8-11 0.6-1.6 2.1-6.6 3.4-11 1.3-4.4 3.4-10.2 4.6-13 1.2-2.7 3.6-7 5.2-9.5 1.7-2.5 3.8-5.4 4.8-6.5 0.9-1.1 4.1-4.6 7.1-7.9 2.9-3.2 6-6.6 6.9-7.5 0.9-0.9 3.4-3.2 5.6-5.1 2.2-1.9 4.8-4.2 5.9-5 1-0.8 5.7-3.4 10.4-5.6 4.7-2.3 9.6-4.5 11-4.9 1.4-0.5 5.4-2.1 9-3.7 3.6-1.7 9.2-3.4 12.5-4 3.3-0.6 8.9-1.4 12.5-1.7 3.6-0.4 11.7-0.6 18-0.3zm37 215.3c0.3-0.1-0.5 1.8-1.7 4.2-1.4 2.6-2.3 6-2.3 9 0 2.6 0.7 6.2 1.5 8 0.8 1.7 2.9 4.7 4.7 6.4 2.4 2.3 5.4 3.9 10.5 5.3 5.8 1.6 8.1 1.8 11 1 2.1-0.5 4.4-1 5-1 1 0 1.3 2.6 1.3 19h-49l2-3.2c1-1.8 2.4-6.7 3.1-10.8 0.7-4.5 0.9-12.3 0-31.5l6.7-3.2c3.7-1.8 6.9-3.2 7.2-3.2zm179.6 11.4l0.2 18.7c0.1 10.4 0.4 19.5 0.7 20.3 0.4 1.3-1.9 1.5-17.2 1.5-14.2-0.1-17.5-0.3-16.2-1.3 0.9-0.7 2.6-3.1 3.8-5.4 1.1-2.4 2.1-6.2 2.1-8.5 0-2.4-0.6-6.5-1.5-9.3-0.8-2.7-1.5-5.6-1.5-6.2 0-0.8 0.7-1.1 1.8-0.7 0.9 0.3 3.1 0.1 4.7-0.6 1.6-0.7 5.5-2.3 8.5-3.6 3.2-1.4 6-3.3 6.7-4.7 1-2.1 1.4-2.3 7.9-0.2z"/>
		<path id="Path 4" class="s4" d="m491.5 1034.5l0.8 4c0.5 2.2 0.6 9.8 0.3 17-0.2 7.2-0.9 14.6-1.6 16.5-0.6 1.9-1.7 4.5-2.5 5.8-1.5 2.2-1.7 2.2-23.8 2.1-17.7 0-21.7-0.3-19.9-1.2 1.2-0.7 2.7-2.3 3.3-3.7 0.6-1.4 0.8-3.5 0.5-4.8-0.3-1.2-2.3-3.4-4.4-4.9-2-1.5-3.9-2.9-4.2-3-0.3-0.2 0.1-3.2 0.8-6.6 0.7-3.4 2.1-9.3 4.7-19.9l3.5 0.6c1.9 0.3 7.1 0.8 11.5 1.1 4.5 0.4 11.1 0.1 15-0.5 3.9-0.7 9-1.5 11.5-1.8zm195.3 5.5c0.4 0 4.7 1.1 9.7 2.5 6.1 1.7 12.9 2.8 21.3 3.3 11.2 0.6 12.3 0.8 12.7 2.7 0.2 1.1 0.8 4.3 1.4 7.2 0.6 2.9 1.1 7.1 1.1 9.3 0 2.3-1.1 6.2-5.5 15h-20.3c-17.1 0-20.3-0.3-20.7-1.5-0.3-0.9-0.5-9.9-0.5-20 0-10.2 0.3-18.5 0.7-18.5zm-65.7 6.6l3.2 0.7c1.8 0.4 9.6 0.7 31.3 0.6l1.7 6.5c1 3.6 1.8 8.4 1.8 10.6 0 2.2-1 5.9-2.1 8.2-1.2 2.3-2.9 4.8-3.8 5.5-1.1 0.8-5.9 1.2-27.1 1.3l-2-3c-1.7-2.6-2.1-5.3-2.5-16.7z"/>
		<path id="Path 5" class="s5" d="m539.7 1009.2q3.6 0.3 5.6 2.8c1.3 1.7 1.7 3.3 1.3 5.2-0.3 1.6-1.3 3.5-2.1 4.3-0.8 0.8-2.7 1.8-4.3 2.1-1.9 0.4-3.5 0-5.2-1.3-1.7-1.4-2.6-3.1-2.8-5.6-0.1-2.6 0.4-4.3 1.9-5.8 1.4-1.4 3-1.9 5.6-1.7z"/>
		<path id="Path 6" class="s6" d="m649.7 1006.2q3.6 0.3 5.6 2.8c1.3 1.7 1.7 3.3 1.3 5.2-0.3 1.6-1.3 3.5-2.1 4.3-0.8 0.8-2.7 1.8-4.3 2.1-1.9 0.4-3.5 0-5.2-1.3-1.7-1.4-2.6-3.1-2.8-5.6-0.1-2.6 0.4-4.3 1.9-5.8 1.4-1.4 3-1.9 5.6-1.7zm10 28q3.6 0.3 5.6 2.8c1.3 1.7 1.7 3.3 1.3 5.2-0.3 1.6-1.3 3.5-2.1 4.3-0.8 0.8-2.7 1.8-4.3 2.1-1.9 0.4-3.5 0-5.2-1.3-1.7-1.4-2.6-3.1-2.8-5.6-0.1-2.6 0.4-4.3 1.9-5.8 1.4-1.4 3-1.9 5.6-1.7z"/>
		<path id="Path 7" class="s7" d="m559.3 1060.2c1.5-0.2 1.7 0.9 1.7 19.8h-25v-19l10.8-0.3c5.9-0.1 11.5-0.4 12.5-0.5z"/>
		<path id="Path 8" class="s8" d="m549.3 1013c1.8 0 5.9 0.8 9.2 1.7 3.3 0.9 6.5 1.9 7 2.3 0.6 0.4 2.4 1 4 1.4 1.7 0.3 4.8 1.5 7 2.6 2.2 1.2 5.3 3.3 6.8 4.8 1.5 1.5 3.2 4.4 3.7 6.5 0.7 2.5 0.6 5.1-0.1 8-0.6 2.3-2.1 5.9-3.2 8-1.7 2.9-4 4.7-18.2 11.9l-15.5 0.5c-8.5 0.2-17.5 0.9-20 1.4-3.6 0.8-5.9 0.5-11.5-1.1-4.8-1.4-8-3.1-10.3-5.3-1.8-1.7-3.9-4.7-4.7-6.5-0.8-1.7-1.5-5.2-1.5-7.7 0-2.6 0.9-6.3 2.2-8.8 1.2-2.3 3.8-5.9 5.7-7.9 2.4-2.5 5.4-4.3 9.1-5.4 3-0.9 6.4-2.3 7.5-3 1.1-0.8 2.8-1.4 3.8-1.4 1.1 0 1.7 0.8 1.7 2.5 0 1.6 1 3.3 2.8 4.5 1.5 1.2 3.3 2.1 4 2 0.6 0 2.3-0.6 3.7-1.2 1.4-0.7 3-2.4 3.6-3.8 0.6-1.4 0.9-3.3 0.6-4.2-0.5-1.5 0-1.8 2.6-1.8z"/>
		<path id="Path 9" fill-rule="evenodd" class="s1" d="m593.7 533.2c2.4 0.2 4.2 1.1 5.5 2.8 1.9 2.4 1.9 3.3 0.8 21-0.9 14.1-0.9 23.4-0.1 39 0.7 11.3 1.9 27.7 2.7 36.5 0.8 8.8 1.9 17.6 2.3 19.5 0.5 1.9 1.2 6.2 1.6 9.5 0.3 3.3 1.9 10.8 3.6 16.7 1.6 6 2.9 11.6 2.9 12.5 0 1 1.6 7.6 3.5 14.8 2.8 10.3 3.4 13.5 2.6 15.5-0.6 1.4-2.2 3.1-3.6 3.7-1.4 0.7-3.2 1.3-4 1.3-0.8 0-2.6-1-3.9-2.3-1.9-1.7-3.3-5.4-5.9-15.7-1.9-7.4-4.8-19.4-6.6-26.5-1.7-7.2-3.4-15.5-3.7-18.5-0.3-3-1-6.9-1.4-8.5-0.5-1.7-1.6-10.4-2.4-19.5-0.9-9.1-2.1-26.4-2.7-38.5-0.9-17.6-0.9-25.8 0.2-41 1.1-16.2 1.5-19.3 3.2-20.8 1.2-1.2 3-1.7 5.4-1.5zm171.8 7.8c2.6 0 4 0.7 5.6 2.7 1.6 2.2 1.9 3.6 1.4 6.3-0.4 1.9-3.2 8.9-6.2 15.5-3.1 6.6-6.4 14.5-7.5 17.5-1.1 3-3.1 9.1-4.5 13.5-1.3 4.4-2.8 10.2-3.3 13-0.5 2.7-1.4 7.9-2 11.5-0.6 3.6-1.5 8.5-2 11-0.5 2.5-1.3 7.2-1.9 10.5-0.5 3.3-3.5 15-6.6 26-3.1 11-6 22.2-6.5 25-0.4 2.7-1.5 9.5-2.3 15-0.9 5.5-2 16.9-2.6 25.2-0.6 8.4-1.6 16.3-2.1 17.5-0.6 1.3-2.1 2.9-3.5 3.5-1.4 0.7-3.2 1.3-4 1.3-0.8 0-2.7-1-6.7-4.5l1.1-17c0.7-9.4 1.6-20.2 2.1-24 0.6-3.9 1.5-9.9 2.1-13.5 0.7-3.6 4-17.1 7.4-30 3.5-12.9 6.8-26.7 7.4-30.5 0.7-3.9 1.6-9 2.1-11.5 0.5-2.5 1.4-7.7 2.1-11.5 0.6-3.9 2.4-12 4-18 1.6-6 3.5-12.4 4.3-14 0.7-1.7 2.4-5.7 3.6-9 1.3-3.3 3.6-8.9 5.2-12.5 1.6-3.6 3.6-7.8 4.4-9.3 0.9-1.6 1.5-3.5 1.5-4.3-0.1-0.8 0.8-2.3 1.9-3.4 1.2-1.2 3.3-2 5.5-2zm204 26c2.7 0 4 0.7 5.5 2.7 1.2 1.6 2.1 3.5 2 4.3 0 0.8-0.9 3-2 4.7-1.1 1.8-3.2 4.6-4.8 6.2-1.5 1.6-3.6 3.9-4.8 5.2-1.1 1.3-3.1 4-4.4 5.9-1.3 1.9-2.9 4-3.6 4.5-0.6 0.5-2.2 2.6-3.5 4.5-1.3 1.9-4 5.1-6 7-1.9 1.9-5.1 5.7-6.9 8.5-1.9 2.7-3.7 5.1-4.2 5.2-0.4 0.2-1.8 2-2.9 4-1.2 2.1-5.2 8.5-8.9 14.3-3.7 5.8-9.1 14.3-12.1 18.9-3 4.6-6.5 9.6-7.8 11-1.3 1.4-3.5 4.6-4.9 7.1-1.4 2.5-4.4 7.2-6.6 10.5-2.2 3.3-4.2 6.1-4.5 6.2-0.3 0.1-3 3.9-6 8.5-3 4.6-7.7 11.9-10.5 16.2-2.8 4.4-5.8 8.7-6.7 9.5-0.9 0.9-3.6 4.7-5.9 8.6-2.4 3.8-5.8 9.9-7.6 13.5-1.8 3.6-4.2 7.5-5.4 8.7-1.1 1.3-3.2 2.6-4.8 2.9-1.9 0.4-3.5 0-5.2-1.3-1.6-1.3-2.6-3.2-2.8-5.4-0.2-2.3 0.5-4.6 2.3-7.2 1.4-2 2.5-4.3 2.5-5 0-0.6 1.4-3.2 3.1-5.7 1.6-2.5 4.8-7.5 6.9-11.3 2.2-3.7 4.4-6.8 4.8-7 0.5-0.1 3.4-4 6.4-8.7 3-4.7 7.9-12.2 10.9-16.8 3-4.6 5.7-8.4 6-8.5 0.3-0.1 2.3-2.9 4.5-6.2 2.2-3.3 5.2-8 6.6-10.5 1.4-2.5 3.6-5.7 4.9-7.1 1.3-1.4 4.8-6.4 7.8-11 3-4.6 8.4-13.1 12.1-18.9 3.7-5.8 7.7-12.2 8.9-14.3 1.1-2 2.5-3.8 2.9-4 0.5-0.1 2.3-2.5 4.2-5.2 1.8-2.8 5-6.7 7.2-8.8 2.1-2 5-5.5 6.5-7.7 1.6-2.3 3-4.1 3.3-4 0.3 0 1.4-1.4 2.5-3.2 1.1-1.8 2.9-4.3 4-5.5 1.1-1.2 3.8-4.3 6-7 2.2-2.6 4.8-5.5 5.7-6.5 1.1-1.1 3.2-1.8 5.3-1.8zm-574 8c2.4 0 4 0.7 5.3 2.2 1.4 1.9 1.9 5.1 2.5 16.5 0.4 7.9 1.1 16.2 1.6 18.5 0.5 2.4 1.7 8.1 2.6 12.8 0.9 4.7 2.8 13 4.2 18.5 1.4 5.5 3 10.5 3.4 11 0.5 0.5 1.7 4.4 2.9 8.5 1.1 4.1 3.2 10.6 4.6 14.5 1.5 3.8 3.3 8.6 4.2 10.5 0.8 1.9 2.1 4.6 2.9 6 0.7 1.4 3.2 6.1 5.4 10.5 2.3 4.4 5.2 9.6 6.5 11.5 1.3 1.9 2.4 4 2.4 4.5 0 0.5 2 4.1 4.5 8 2.4 3.8 4.5 7.6 4.5 8.2 0 0.7-0.6 2.4-1.3 3.8-0.6 1.4-2.6 3-4.2 3.7-2.2 0.8-3.6 0.8-5.3-0.1-1.2-0.6-3.6-3.2-5.4-5.9-1.8-2.6-4.6-7.4-6.3-10.7-1.7-3.3-4.2-7.8-5.4-10-1.3-2.2-2.7-4.5-3.1-5-0.4-0.5-1.1-2.1-1.5-3.5-0.4-1.4-2.1-4.4-3.6-6.8-1.6-2.3-2.9-4.8-2.9-5.5 0-0.6-0.6-2.1-1.3-3.2-0.7-1.1-1.9-4-2.6-6.5-0.7-2.5-1.7-5-2.1-5.5-0.4-0.5-2-5.3-3.4-10.5-1.5-5.2-3-10-3.5-10.5-0.5-0.5-2.2-6.4-3.9-13-1.7-6.6-3.7-15.4-4.6-19.5-0.8-4.1-2-10-2.6-13-0.6-3-1.4-12.3-1.7-20.5-0.6-14.5-0.6-15.1 1.5-17.3 1.5-1.4 3.4-2.2 5.7-2.2zm-157.3 76c1.9-0.1 4 0.7 5 1.7 1 1.1 6.8 20 14.3 47.3 6.9 25 13.2 46.7 14 48.2 0.8 1.6 1.5 3.3 1.5 3.8 0 0.5 1.5 3.4 3.3 6.2 1.9 2.9 5.8 9.1 8.7 13.8 2.9 4.7 8.6 13.5 12.7 19.5 4 6 8.7 12.8 10.4 15 1.6 2.2 5.2 6.4 8 9.2 2.7 2.9 4.9 6 4.9 6.8 0 0.8-0.6 2.6-1.3 4-0.6 1.4-2.6 3.1-4.2 3.7-2.5 0.9-3.5 0.8-6.4-0.8-1.8-1-5.4-4.5-8-7.8-2.5-3.2-5.8-7.3-7.2-9-1.4-1.7-5.8-7.9-9.7-13.9-4-5.9-7.2-10.9-7.2-11.2 0-0.3-2.3-3.9-5-8-2.8-4.1-5-7.7-5-8 0-0.3-1.8-3.2-4-6.5-2.2-3.3-4-6.5-4-7 0-0.5-0.7-2.2-1.5-3.8-0.8-1.5-7.1-23.2-14-48.2-6.9-25-12.5-46.7-12.5-48.3 0-1.5 0.9-3.6 2-4.7 1.2-1.2 3.4-2 5.2-2zm451.5 17c2.4 0 3.8 0.7 5.3 2.7 1.2 1.6 2 3.5 2 4.3 0 0.8-1.5 4.2-3.4 7.5-1.8 3.3-4.1 8.5-5.1 11.5-1 3.5-1.9 10.5-2.2 19-0.3 7.9-0.1 16.5 0.6 20.7 0.9 5.7 0.8 7.9-0.2 9.8-0.6 1.4-2.6 3.1-4.2 3.7-2.4 0.9-3.5 0.9-5.5-0.3-1.4-0.8-3.2-2.8-4-4.4-1.2-2.4-1.5-7.2-1.5-23.5 0-19.3 0.2-21 2.7-29 1.4-4.7 4.2-11.2 6.2-14.4 2.1-3.3 4.2-6.3 4.9-6.8 0.7-0.4 2.7-0.8 4.4-0.8zm128.8 18c2.7 0 4 0.6 5.5 2.7 1.2 1.6 2.1 3.5 2.1 4.3 0 0.8-1.9 4.4-4.2 8-2.3 3.6-5.9 9.9-8 14-2.1 4.1-4.5 9.5-5.4 12-0.9 2.5-2.5 7.2-3.6 10.5-1 3.3-2 8.7-2.1 12-0.1 3.4 0.6 8.4 1.7 11.5 1.3 4.3 1.5 6.1 0.6 8-0.6 1.4-2.5 3.1-4.3 3.9-2.9 1.3-3.6 1.3-5.7 0-1.3-0.8-2.7-2.1-3.1-2.9-0.4-0.8-1.5-3.3-2.6-5.5-1.4-3-1.8-6.2-1.8-12.5 0.1-6 0.8-11.2 2.8-18 1.4-5.2 3.1-10 3.6-10.5 0.6-0.5 1-1.7 1-2.5 0-0.8 0.9-3.3 2-5.5 1.1-2.2 2-4.3 2-4.8 0-0.4 2.6-5 5.7-10.3 3.2-5.3 6.8-10.7 8-12 1.5-1.7 3.3-2.4 5.8-2.4zm229.1 9.2c2.5 0.2 4.3 1.1 5.7 2.8 1.3 1.7 1.7 3.3 1.3 5.2-0.4 1.7-4.8 7-11.2 13.5-5.8 6-19.2 19.6-29.7 30.3-10.6 10.8-20.6 21.3-22.2 23.4-1.7 2.1-4.1 5-5.5 6.4-1.4 1.5-3.7 4.3-5 6.2-1.4 1.9-3.2 4.2-4 5-0.9 0.8-2.9 3.7-4.5 6.5-1.7 2.7-4.1 6.1-5.5 7.5-1.4 1.4-3.9 4.3-5.5 6.3-1.7 2.1-6.8 7.8-11.5 12.7-4.7 4.8-9.4 9.8-10.6 11.1-1.1 1.3-3.1 4-4.5 5.9-1.3 1.9-4.2 5.3-6.4 7.6-2.2 2.2-4.8 5-5.8 6.2-0.9 1.2-2.9 2.5-4.5 2.8-1.9 0.4-3.5 0-5.2-1.3-1.4-1.1-2.6-3.1-2.8-4.4-0.2-1.3-0.1-3.4 0.2-4.7 0.3-1.2 2.9-4.6 5.7-7.5 2.8-2.8 6-6.6 7.2-8.2 1.2-1.7 2.9-3.9 3.8-5 0.9-1.1 4.1-4.7 7.1-7.9 2.9-3.2 6.4-6.8 7.7-8 1.2-1.2 3-2.9 4-4 0.9-1 2.6-3 3.9-4.5 1.3-1.4 3.2-4.1 4.3-5.9 1-1.7 2.2-3.2 2.6-3.2 0.5 0.1 2.5-2.6 4.5-6 2.1-3.3 4.1-6 4.5-6 0.5 0 1.7-1.4 2.8-3.2 1-1.8 3.4-4.9 5.1-6.8 1.8-1.9 4.3-4.7 5.6-6.2 1.3-1.5 3.6-4.3 5.3-6.4 1.6-2.1 5.2-5.9 8-8.6 2.7-2.6 5.7-5.5 6.5-6.5 0.8-0.9 2.5-2.6 3.8-3.7 1.3-1.2 4.9-4.7 8-8 3.1-3.2 11.9-12.1 19.4-19.8 13.2-13.4 13.8-13.9 17.4-13.6zm-509.1 0.8c2.7 0 4 0.7 5.5 2.7 1.4 1.9 2.1 4.3 2 7.3 0 2.5 0.5 6.1 1.1 8 0.6 1.9 2.9 7.3 5.1 12 2.3 4.7 4.5 9.4 5.1 10.5 0.6 1.1 1.6 3.1 2.3 4.5 0.7 1.4 2 4.3 3 6.5 0.9 2.2 2.4 5.3 3.2 7 1.2 2.4 1.3 3.6 0.4 6-0.6 1.6-2.3 3.6-3.7 4.2-1.4 0.7-3.3 1.3-4.3 1.3-0.9-0.1-3.2-1.6-5-3.5-1.7-1.9-3.2-4.2-3.2-5 0-0.8-0.6-2.7-1.3-4.3-0.8-1.5-2-4.1-2.8-5.7-0.9-1.7-2-3.9-2.6-5-0.6-1.1-2-4-3.2-6.5-1.1-2.5-2.1-4.8-2.1-5.3 0-0.4-0.8-1.9-1.8-3.5-1-1.5-2.6-5.4-3.5-8.7-0.9-3.3-1.7-8.8-1.7-12.3 0-4.9 0.4-6.6 2-8.2 1.2-1.2 3.3-2 5.5-2zm-161.3 15c1.9-0.1 4 0.7 4.9 1.7 0.9 1 2.6 3.8 3.9 6.3 1.2 2.5 4.9 7.5 8.1 11.2 3.3 3.8 6.4 7.8 7 9 0.9 1.8 0.9 3.1-0.2 5.6-0.8 1.8-2.5 3.7-3.9 4.3-1.4 0.6-3.4 0.8-4.5 0.5-1.1-0.3-5.4-4.5-9.5-9.3-4.1-4.8-8.1-9.8-8.8-11.1-0.6-1.2-1.9-3.4-2.7-5-0.8-1.5-1.5-4.2-1.5-6 0-1.9 0.8-4 2-5.2 1.2-1.2 3.4-2 5.2-2zm543.4 31.2c2.5 0.2 4.3 1.1 5.7 2.8 1.3 1.7 1.7 3.3 1.3 5.2-0.3 1.6-2.1 4.3-3.9 6-1.8 1.8-4.1 4.8-5.2 6.6-1.1 1.8-2.3 3.2-2.7 3.2-0.5 0-1.8 1.7-3 3.7-1.3 2.1-3 4.4-3.9 5.3-0.9 0.8-4.8 6.2-8.6 12-3.7 5.8-7.8 13.2-9 16.5-1.5 4.2-2.9 6.4-4.7 7.2-1.4 0.7-3.2 1.3-3.8 1.3-0.7 0.1-2.5-0.8-4-2-1.9-1.3-2.8-2.9-2.8-4.8 0-1.5 0.6-4.7 1.4-7.2 0.7-2.5 2.8-7 4.6-10 1.8-3 5.5-8.9 8.3-13 2.7-4.1 5.7-8.2 6.6-9 0.9-0.9 2.6-3.2 3.9-5.3 1.2-2 2.5-3.7 3-3.7 0.4 0 1.6-1.4 2.7-3.2 1-1.8 3.8-5.2 6.2-7.6 3.7-3.8 4.7-4.3 7.9-4zm-422.1 79.8c2.7 0 4 0.7 5.5 2.7 1.2 1.6 2.1 3.4 2 4 0 0.7-1 3.2-2.1 5.5-1.2 2.4-2.9 4.7-3.8 5.3-0.9 0.5-4.1 3.4-7.1 6.3-3.3 3.2-8.3 6.7-12.5 8.7-3.8 1.8-9.5 3.9-18.2 6l-0.6 14c-0.4 7.7-0.4 14.1-0.2 14.2 0.3 0.2 1.7-1.1 3.3-2.7 1.5-1.7 5-4 7.7-5.1 3.9-1.7 6-2 9.5-1.4 2.5 0.4 6.9 1.1 9.9 1.4 4.1 0.5 5.9 1.2 7.3 3.1 1.8 2.3 1.9 3 0.7 8-0.6 3-2.4 8.2-3.9 11.5-1.4 3.3-4.5 7.9-6.8 10.2-3.1 3.2-5.7 4.7-15.2 7.3l2.3 2.9c1.2 1.5 4.2 4.1 6.7 5.6 4.2 2.6 5 2.7 11 2 6.4-0.7 6.6-0.7 8.8 2.1 1.2 1.6 2.3 3.5 2.2 4.1 0 0.7-0.6 2.4-1.2 3.8-0.7 1.4-2.6 3.1-4.3 3.8-1.6 0.6-6.4 1.2-10.5 1.2-7.2 0-7.9-0.2-14-4.2-3.6-2.3-8.6-6.8-11.2-10-2.6-3.2-5-7.3-5.3-9.1-0.3-1.7-0.9-3.2-1.5-3.2-0.5 0-1.7 1.9-2.6 4.2-0.9 2.4-3.3 7.2-5.4 10.8-2.1 3.6-6.3 9-9.3 12-3.1 3-6.8 6.6-8.4 7.9-1.5 1.3-4.8 3.4-7.3 4.6-2.5 1.3-6.1 2.6-8 3-2.7 0.5-4.1 0.2-6.2-1.4-2.1-1.6-2.8-3-2.8-5.6 0-2.2 0.8-4.3 2-5.5 1.1-1.1 2.7-2 3.5-2 0.8 0 2.9-0.8 4.6-1.8 1.7-0.9 4.2-2.6 5.6-3.7 1.4-1.1 3.2-2.8 4.2-3.9 0.9-1 3.2-3.5 5.1-5.6 1.9-2.1 4.4-5.7 5.6-8.1 1.2-2.4 3-6.4 4.2-8.9 1.2-2.5 2.5-7.7 3.1-11.5 0.5-3.9 1.3-14.4 1.6-23.5 0.3-9.1 0.4-17.3 0.1-18.3-0.5-1.3-1.8-1.7-6.3-1.7-3.2 0-7.4 0.5-9.3 1-2.1 0.6-5.6 3.2-8.5 6.3-2.7 2.9-6.1 7.5-7.4 10.2-2.1 4.5-2.3 5.8-1.7 13 0.6 7.6 0.8 8.1 4.1 10.7 1.9 1.6 3.8 3.8 4.1 5 0.3 1.3 0 3.6-0.8 5.1-0.7 1.5-2.6 3.3-4.3 3.9-2.3 0.8-3.8 0.7-6.4-0.3-2-0.8-4.9-3.4-6.7-5.9-2.3-3.2-3.6-6.4-4.3-11-0.6-3.6-1.1-9-1.1-12 0-3 0.7-7.8 1.6-10.5 0.8-2.8 2.9-7 4.7-9.5 1.7-2.5 4-5.6 5.1-6.9 1.2-1.2 2.8-3 3.7-4 1-0.9 3-2.7 4.5-4.1 1.5-1.4 5.7-3.3 9.3-4.3 3.6-0.9 8.9-1.7 11.6-1.7 4.1 0 5.5-0.5 7.6-2.5 1.6-1.7 3.6-2.5 5.9-2.5 2.3-0.1 4.2 0.7 5.5 2.1 1.6 1.7 2.8 2 6 1.6 2.2-0.3 5.4-1.2 7-2 1.7-0.8 4.3-2.1 5.8-2.9 1.6-0.7 5.7-4.1 9-7.5 3.4-3.5 7-7.2 8-8.3 1.1-1.3 2.9-2 5.2-2zm285.5 24.3c4.8 0.3 7.5 1 10.5 3 2.2 1.4 5.5 4.4 7.3 6.6 1.8 2.3 4.1 4.1 5.2 4.1 1.1 0 2.9 1.2 4 2.7 1.2 1.6 2.1 3.4 2 4 0 0.7-0.6 2.4-1.2 3.8-0.7 1.4-2.4 3-3.8 3.6-1.7 0.7-3.7 0.7-6.5 0-2.9-0.7-5.6-2.7-9.7-7.1-3.2-3.3-6.5-6-7.3-6-0.8 0-1.7 0.8-2 1.7-0.2 1-1.6 2.4-3 3-1.4 0.7-3.1 1.3-3.7 1.3-0.7 0.1-2.5-0.8-4-2-2-1.4-2.8-2.9-2.8-5 0-1.7 0.9-4.8 2-7 1.1-2.2 3-4.7 4.3-5.6 1.6-1.1 3.9-1.4 8.7-1.1zm282.8-0.3c2.4 0 3.7 0.7 5.2 2.7 1.2 1.6 2.1 3.4 2 4 0 0.7-0.5 2.3-1 3.5-0.6 1.3-2.9 3.4-5.3 4.7-2.3 1.4-8.2 5.1-13.2 8.2-5 3.2-9.7 6.4-10.5 7.1-0.8 0.8-4.4 3.3-8 5.7-3.6 2.4-7 4.9-7.5 5.6-0.5 0.6-5.7 4.3-11.5 8.1-5.8 3.9-12.7 8.3-15.5 9.9-2.7 1.6-5.7 3.6-6.5 4.5-0.8 0.8-4.4 3.5-8 5.9-3.6 2.4-7.3 5.2-8.2 6.3-1 1-5.1 3.7-9 6-4 2.3-16.5 8.9-27.8 14.7-11.3 5.7-23.4 11.9-27 13.7-3.6 1.9-8.1 3.6-10 3.9-2.7 0.5-4.2 0.1-6.2-1.4-2-1.5-2.8-3-2.8-5.1 0-1.7 0.5-3.9 1-5 0.6-1.2 3-2.6 6.3-3.5 2.8-0.8 7.9-3.3 11.2-5.5 3.3-2.2 6.6-4 7.3-4 0.6 0 2.9-1.1 5-2.5 2-1.4 4.3-2.5 5-2.5 0.6 0 2.9-1.1 5-2.5 2-1.4 4.3-2.5 5-2.5 0.6 0 3.9-1.6 7.2-3.5 3.3-1.9 6.2-3.5 6.5-3.5 0.3 0 3.2-1.6 6.5-3.5 3.3-1.9 6.8-4.3 7.8-5.3 0.9-1.1 4.6-3.9 8.2-6.3 3.6-2.4 7.2-5.1 8-5.9 0.8-0.9 3.8-2.9 6.5-4.5 2.8-1.6 9.7-6 15.5-9.9 5.8-3.8 11-7.5 11.5-8.1 0.5-0.7 3.9-3.2 7.5-5.6 3.6-2.4 7.2-5 8-5.7 0.8-0.7 4.4-3.2 8-5.4 3.6-2.3 9.7-6.1 13.5-8.5 4.4-2.7 8.2-4.3 10.3-4.3zm-365.3 1c2.6 0 4.4 0.9 7 3.2 1.9 1.8 3.4 4.1 3.5 5 0 1 1 3.3 2.2 5 1.2 1.8 2.6 4.9 3 6.8 0.9 3.3 1 3.4 2.3 1.5 0.8-1.1 1.5-2.6 1.5-3.3 0-0.6 1.7-4.2 3.9-8 2.1-3.7 4.6-7 5.5-7.5 0.9-0.4 2.8-0.7 4.4-0.7 1.7 0 3.7 1 5.3 2.7 1.5 1.6 3.4 3.9 4.2 5.3 0.9 1.4 2.1 5.2 2.6 8.5 0.6 3.3 2.2 14 3.6 23.7 1.8 12.9 2.2 18.4 1.5 20-0.6 1.3-2.1 2.9-3.5 3.5-1.4 0.7-3.2 1.3-4 1.3-0.8 0-2.6-1-4-2.3-2.3-2-2.7-3.7-4.8-19-1.2-9.2-2.5-16.7-2.9-16.7-0.5 0-2 2-3.5 4.5-1.9 3-4.2 5.1-7.3 6.6-3.9 1.8-5 2-8.2 1-2.2-0.6-4.8-2.4-6-4.1-2-2.7-2.4-2.9-2.9-1.3-0.4 1-1 5.6-1.4 10.3-0.3 4.7-1.1 9.6-1.6 11-0.5 1.4-2 3.1-3.4 3.7-1.4 0.7-3.1 1.3-3.7 1.3-0.7 0.1-2.5-0.8-4-2-2.5-1.8-2.8-2.6-2.8-7.8 0-3.1 1.2-14.2 2.6-24.7 1.4-10.5 2.7-20 2.9-21.3 0.3-1.2 1.4-3.1 2.5-4.2 1.2-1.2 3.3-2 5.5-2zm249.3 26c2.3 0 3.7 0.7 5.2 2.7 1.2 1.6 2.1 3.4 2 4 0 0.7-0.5 2.3-1.1 3.5-0.7 1.5-5.4 4.5-13.7 8.6-7 3.4-13.2 6.2-13.7 6.2-0.5 0.1-2.2-0.8-3.7-2-2.1-1.5-2.8-2.8-2.8-5.5 0-2.2 0.8-4.3 2-5.5 1.1-1.1 6.6-4.3 12.3-7 5.9-2.9 11.6-5 13.5-5zm-708.5 10c1.8-0.1 3.9 0.6 4.7 1.6 0.8 0.9 4.8 3.9 8.8 6.5 3.9 2.7 7.5 4.9 8 4.9 0.4 0.1 4.1 2.5 8.2 5.5 4.1 3 10.8 7.7 14.8 10.5 3.9 2.7 7.7 6 8.3 7.2 0.9 1.7 0.9 3.1 0.1 5.3-0.7 1.6-2.3 3.6-3.7 4.2-1.4 0.7-3.1 1.3-3.7 1.3-0.7 0-5.1-2.7-9.8-5.9-4.7-3.3-11.4-8-15-10.4-3.6-2.4-9.6-6.4-13.5-8.8-3.8-2.4-8.7-6-10.8-7.9-2.9-2.7-3.8-4.2-3.7-6.8 0-1.8 0.9-4.1 2-5.2 1.1-1.1 3.4-2 5.3-2zm433.2 34.2c1.7-0.1 4.1 0.4 5.5 1.1 1.4 0.7 4 3.7 5.8 6.7 2.4 4.1 3.2 6.7 3.2 10 0 2.5-0.5 6.3-1.1 8.5-0.6 2.2-2.5 6.4-4.2 9.2-1.9 3.1-4.7 6.1-6.7 7.2-1.9 1-4.8 2.2-6.5 2.6-1.8 0.4-4.4 0.1-6.5-0.7-1.9-0.8-4.5-2.9-5.7-4.6-1.3-1.8-2.6-5.3-2.9-8-0.3-2.6-0.1-8.1 0.6-12.2 0.7-4.1 1.5-9.4 1.9-11.7 0.3-2.3 1.2-4.7 1.9-5.5 0.7-0.7 3.6-1.6 6.5-1.9 2.9-0.3 6.6-0.7 8.2-0.7zm-41.7 5.8c2.9 0.1 4.4 0.8 7 3.5 1.7 1.9 3.7 5.2 4.3 7.2 0.5 2.1 1.9 10 3 17.5 1.6 11.3 1.7 14.2 0.7 16.3-0.7 1.4-2.3 2.9-3.5 3.5-1.3 0.5-3 1-3.8 1-0.8 0-2.6-1-4-2.3-2.2-1.8-2.8-3.7-3.8-11.5-0.7-5.1-1.5-9.2-1.9-9.2-0.5 0-1 1.1-1.3 2.5-0.3 1.4-2 3.9-3.7 5.6-1.8 1.8-4.5 3.8-6 4.5-1.9 0.9-4.1 1.2-6.5 0.7-2.1-0.4-4.7-1.5-5.8-2.4-1.9-1.7-2-1.6-3.4 3.4-0.8 2.9-1.9 6.2-2.5 7.4-0.6 1.3-2.1 2.7-3.3 3.3-1.3 0.5-2.9 1-3.5 1-0.7 0.1-2.5-0.8-4-2-2.8-2-2.8-2.1-2.7-13.8 0-6.4 0.3-15 0.7-19 0.5-5.7 1.1-7.7 2.7-8.8 1.1-0.8 4-1.7 6.5-2 3.1-0.5 5.3-0.2 7 0.9 1.4 0.8 4.4 4.2 11 13.7l2.9-4.8c1.6-2.6 3.6-6.4 4.5-8.5 0.9-2 2.5-4.6 3.6-5.7 1.3-1.3 3.3-2 5.8-2zm-482.6 5.4q4.8 0.6 10.6 4.5c3.1 2.1 6.8 4.2 8.2 4.6 1.4 0.4 3.7 1.6 5.3 2.6 1.5 1.1 2.9 1.9 3.2 1.9 0.3 0 2.6 0.9 5.3 2.1 2.6 1.1 6.3 2.7 8.2 3.6 1.9 0.9 4.4 2 5.5 2.6 1.1 0.6 2.7 1.4 3.5 1.9 0.8 0.4 2.6 1.2 4 1.8 1.4 0.5 4.8 2.3 7.5 4 2.8 1.6 10.4 5.6 17 8.9 6.6 3.3 14.9 7.3 18.5 9 3.6 1.7 8 3.4 9.9 3.8 1.9 0.4 4.3 1.9 5.3 3.3 1 1.4 1.9 3.1 1.8 3.7 0 0.7-0.6 2.4-1.2 3.8-0.7 1.4-2.4 3-3.8 3.6-1.8 0.7-3.8 0.7-7-0.1-2.5-0.7-7.4-2.6-11-4.2-3.6-1.6-11.7-5.5-18-8.6-6.3-3.1-12.6-6.4-14-7.3-1.4-0.9-6.8-3.8-12-6.4-5.2-2.5-10.8-5.3-12.5-6-1.6-0.8-8.4-3.9-15-7-6.6-3.2-13.9-7-16.2-8.6-2.4-1.6-4.9-2.9-5.5-2.9-0.7 0.1-2.5-0.8-4-2-2.1-1.5-2.8-2.8-2.8-5.5 0-2.3 0.8-4.3 2.2-5.6 1.8-1.8 2.9-2.1 7-1.5zm403-0.4c2.6-0.1 4.1 0.8 7.1 4 2 2.2 4.2 5.2 4.8 6.7 0.7 1.6 1.7 4.1 2.4 5.8 0.7 1.6 2.5 6.4 4 10.5 1.5 4.1 3.2 8.4 3.7 9.5 0.6 1.1 1.7 4.2 2.5 7 1.1 3.7 1.2 5.7 0.4 7.5-0.6 1.4-2.2 3.1-3.6 3.7-1.4 0.7-3.2 1.3-4 1.3-0.8 0-2.6-1-4-2.3-1.3-1.2-2.8-3.8-3.3-5.7-0.6-2.3-1.4-3.4-2.3-3.1-0.8 0.3-3.3 0.6-5.6 0.8-4.3 0.3-4.3 0.3-4.3 4.3 0 2.2-0.5 5-1 6.2-0.6 1.3-2.1 2.9-3.5 3.5-1.4 0.7-3.1 1.3-3.7 1.3-0.7 0.1-2.6-1-7.1-4.5l0.6-9.5c0.3-5.2 1.3-12.9 2.2-17 0.9-4.1 2.6-11.3 3.8-16 1.5-6.1 2.9-9.3 4.8-11.3 1.9-1.8 3.8-2.7 6.1-2.7z"/>
		<path id="Path 10" class="s5" d="m571.7 1021.2q3.6 0.3 5.6 2.8c1.3 1.7 1.7 3.3 1.3 5.2-0.3 1.6-1.3 3.5-2.1 4.3-0.8 0.8-2.7 1.8-4.3 2.1-1.9 0.4-3.5 0-5.2-1.3-1.7-1.4-2.6-3.1-2.8-5.6-0.1-2.6 0.4-4.3 1.9-5.8 1.4-1.4 3-1.9 5.6-1.7zm-49 2q3.6 0.3 5.6 2.8c1.3 1.7 1.7 3.3 1.3 5.2-0.3 1.6-1.3 3.5-2.1 4.3-0.8 0.8-2.7 1.8-4.3 2.1-1.9 0.4-3.5 0-5.2-1.3-1.7-1.4-2.6-3.1-2.8-5.6-0.1-2.6 0.4-4.3 1.9-5.8 1.4-1.4 3-1.9 5.6-1.7zm26 3q3.6 0.3 5.6 2.8c1.3 1.7 1.7 3.3 1.3 5.2-0.3 1.6-1.3 3.5-2.1 4.3-0.8 0.8-2.7 1.8-4.3 2.1-1.9 0.4-3.5 0-5.2-1.3-1.7-1.4-2.6-3.1-2.8-5.6-0.1-2.6 0.4-4.3 1.9-5.8 1.4-1.4 3-1.9 5.6-1.7zm14 15q3.6 0.3 5.6 2.8c1.3 1.7 1.7 3.3 1.3 5.2-0.3 1.6-1.3 3.5-2.1 4.3-0.8 0.8-2.7 1.8-4.3 2.1-1.9 0.4-3.5 0-5.2-1.3-1.7-1.4-2.6-3.1-2.8-5.6-0.1-2.6 0.4-4.3 1.9-5.8 1.4-1.4 3-1.9 5.6-1.7zm-33 3q3.6 0.3 5.6 2.8c1.3 1.7 1.7 3.3 1.3 5.2-0.3 1.6-1.3 3.5-2.1 4.3-0.8 0.8-2.7 1.8-4.3 2.1-1.9 0.4-3.5 0-5.2-1.3-1.7-1.4-2.6-3.1-2.8-5.6-0.1-2.6 0.4-4.3 1.9-5.8 1.4-1.4 3-1.9 5.6-1.7z"/>
		<path id="Path 11" class="s6" d="m451.7 977.2q3.6 0.3 5.6 2.8c1.3 1.7 1.7 3.3 1.3 5.2-0.3 1.6-1.3 3.5-2.1 4.3-0.8 0.8-2.7 1.8-4.2 2.1-2 0.4-3.6 0-5.3-1.3-1.7-1.4-2.6-3.1-2.7-5.6-0.2-2.6 0.3-4.3 1.8-5.8 1.4-1.4 3-1.9 5.6-1.7zm264 4q3.6 0.3 5.6 2.8c1.3 1.7 1.7 3.3 1.3 5.2-0.3 1.6-1.3 3.5-2.1 4.3-0.8 0.8-2.7 1.8-4.2 2.1-2 0.4-3.6 0-5.3-1.3-1.7-1.4-2.6-3.1-2.7-5.6-0.2-2.6 0.3-4.3 1.8-5.8 1.4-1.4 3-1.9 5.6-1.7zm-288 21q3.6 0.3 5.6 2.8c1.3 1.7 1.7 3.3 1.3 5.2-0.3 1.6-1.3 3.5-2.1 4.3-0.8 0.8-2.7 1.8-4.2 2.1-2 0.4-3.6 0-5.3-1.3-1.7-1.4-2.6-3.1-2.7-5.6-0.2-2.6 0.3-4.3 1.8-5.8 1.4-1.4 3-1.9 5.6-1.7zm327 1q3.6 0.3 5.6 2.8c1.3 1.7 1.7 3.3 1.3 5.2-0.3 1.6-1.3 3.5-2.1 4.3-0.8 0.8-2.7 1.8-4.2 2.1-2 0.4-3.6 0-5.3-1.3-1.7-1.4-2.6-3.1-2.7-5.6-0.2-2.6 0.3-4.3 1.8-5.8 1.4-1.4 3-1.9 5.6-1.7zm-68 7q3.6 0.3 5.6 2.8c1.3 1.7 1.7 3.3 1.3 5.2-0.3 1.6-1.3 3.5-2.1 4.3-0.8 0.8-2.7 1.8-4.2 2.1-2 0.4-3.6 0-5.3-1.3-1.7-1.4-2.6-3.1-2.7-5.6-0.2-2.6 0.3-4.3 1.8-5.8 1.4-1.4 3-1.9 5.6-1.7zm-75 1q3.6 0.3 5.6 2.8c1.3 1.7 1.7 3.3 1.3 5.2-0.3 1.6-1.3 3.5-2.1 4.3-0.8 0.8-2.7 1.8-4.2 2.1-2 0.4-3.6 0-5.3-1.3-1.7-1.4-2.6-3.1-2.7-5.6-0.2-2.6 0.3-4.3 1.8-5.8 1.4-1.4 3-1.9 5.6-1.7zm-144 1q3.6 0.3 5.6 2.8c1.3 1.7 1.7 3.3 1.3 5.2-0.3 1.6-1.3 3.5-2.1 4.3-0.8 0.8-2.7 1.8-4.2 2.1-2 0.4-3.6 0-5.3-1.3-1.7-1.4-2.6-3.1-2.7-5.6-0.2-2.6 0.3-4.3 1.8-5.8 1.4-1.4 3-1.9 5.6-1.7zm196 4q3.6 0.3 5.6 2.8c1.3 1.7 1.7 3.3 1.3 5.2-0.3 1.6-1.3 3.5-2.1 4.3-0.8 0.8-2.7 1.8-4.2 2.1-2 0.4-3.6 0-5.3-1.3-1.7-1.4-2.6-3.1-2.7-5.6-0.2-2.6 0.3-4.3 1.8-5.8 1.4-1.4 3-1.9 5.6-1.7zm-28 4q3.6 0.3 5.6 2.8c1.3 1.7 1.7 3.3 1.3 5.2-0.3 1.6-1.3 3.5-2.1 4.3-0.8 0.8-2.7 1.8-4.2 2.1-2 0.4-3.6 0-5.3-1.3-1.7-1.4-2.6-3.1-2.7-5.6-0.2-2.6 0.3-4.3 1.8-5.8 1.4-1.4 3-1.9 5.6-1.7zm80 4q3.6 0.3 5.6 2.8c1.3 1.7 1.7 3.3 1.3 5.2-0.3 1.6-1.3 3.5-2.1 4.3-0.8 0.8-2.7 1.8-4.2 2.1-2 0.4-3.6 0-5.3-1.3-1.7-1.4-2.6-3.1-2.7-5.6-0.2-2.6 0.3-4.3 1.8-5.8 1.4-1.4 3-1.9 5.6-1.7zm34 2q3.6 0.3 5.6 2.8c1.3 1.7 1.7 3.3 1.3 5.2-0.3 1.6-1.3 3.5-2.1 4.3-0.8 0.8-2.7 1.8-4.2 2.1-2 0.4-3.6 0-5.3-1.3-1.7-1.4-2.6-3.1-2.7-5.6-0.2-2.6 0.3-4.3 1.8-5.8 1.4-1.4 3-1.9 5.6-1.7zm-133 3q3.6 0.3 5.6 2.8c1.3 1.7 1.7 3.3 1.3 5.2-0.3 1.6-1.3 3.5-2.1 4.3-0.8 0.8-2.7 1.8-4.2 2.1-2 0.4-3.6 0-5.3-1.3-1.7-1.4-2.6-3.1-2.7-5.6-0.2-2.6 0.3-4.3 1.8-5.8 1.4-1.4 3-1.9 5.6-1.7z"/>
		<path id="Path 12" fill-rule="evenodd" class="s9" d="m1331.7 9.2c2.5 0.2 4.2 1.1 5.4 2.8 1.1 1.4 2.3 5.7 2.8 10 0.6 4.1 1.5 12 2.1 17.5 0.6 5.5 1.5 14.5 2.1 20 0.6 5.5 1.7 14.7 2.5 20.5 0.8 5.8 1.9 13 2.4 16 0.7 3.6 0.7 6.4 0 8-0.5 1.4-2.1 3.1-3.5 3.8-1.4 0.6-3.2 1.2-4 1.2-0.8 0-2.6-1-4.1-2.2-1.8-1.7-2.8-3.9-3.4-7.8-0.4-3-1.5-10.2-2.3-16-0.9-5.8-2-15.5-2.7-21.5-0.6-6-1.5-15.3-2.1-20.5-0.5-5.2-1.4-12.8-1.9-16.8-0.6-3.9-1-8.1-1-9.2 0-1.1 0.9-2.9 2.1-4.1 1.4-1.4 3-1.9 5.6-1.7zm-1186.5 7.8c2.7 0 5.9 0.5 7.3 1 1.4 0.6 3.3 2.2 4.2 3.8 1.3 2.2 1.4 3.3 0.5 6.2-0.6 1.9-2.1 4.7-3.4 6.1-1.3 1.5-3 3.5-3.9 4.5-1 1.1-3 3-4.5 4.3-1.6 1.3-5.4 4-8.4 6.1-3 2-7.4 4.7-9.7 6.1-3.7 2.1-4.5 3.1-5.5 7.4-0.7 2.8-1.2 9.5-1 15 0.1 7.1 0.7 11.4 2.1 15 1 2.8 3.1 8.4 4.6 12.5 1.5 4.1 3.3 8.6 4 10 0.8 1.4 1.9 5.7 2.5 9.5 0.6 3.8 1.8 7.9 2.5 9 1.1 1.5 1.2 3.7 0.8 8.5-0.6 6.1-0.5 6.7 2 9.8 1.5 1.7 2.7 3.9 2.7 4.7 0 0.8-0.5 2.5-1.1 3.8-0.7 1.2-1.8 2.5-2.5 3-0.9 0.4-1.4 2.7-1.4 6.5 0 3.1-1.2 10-2.6 15.2-1.4 5.2-4.3 12.9-6.4 17-2.1 4.1-5 8.8-6.5 10.5-1.4 1.7-3.9 4.5-5.6 6.3-1.6 1.7-4.1 3.8-5.7 4.6-1.5 0.8-6.5 2.4-11.2 3.7-7.1 2-10.9 2.4-37.5 2.4l-8.5-5c-4.7-2.7-10.7-7.3-13.5-10.2-4.4-4.5-5.3-6.2-7.3-13.5-1.2-4.5-2.2-11-2.2-14.3 0-3.5 0.8-7.6 1.8-10 1-2.2 3.3-6.2 5.2-9 1.8-2.7 4.8-6.3 6.5-8 1.8-1.7 6.2-4.7 9.6-6.8 4.7-2.7 7.3-3.7 9.8-3.5 2.2 0.2 4.1 1.2 5.4 2.8 1.3 1.7 1.7 3.3 1.3 5.3-0.3 1.5-1.2 3.2-1.9 3.7-0.6 0.6-4.2 2.9-7.9 5.3-5 3.1-7.8 5.8-10.8 10.2-3 4.5-4 7-4 10 0 2.2 0.6 6.3 1.3 9 0.7 2.8 2.2 6.2 3.3 7.6 1 1.5 3.5 3.7 5.4 4.9 1.9 1.3 5.5 3.4 8 4.8 4.2 2.4 5.1 2.5 15.5 2 6-0.3 14.1-1.4 17.9-2.4 4.3-1.2 7.7-2.8 9-4.3 1.2-1.2 2.9-3.2 3.8-4.2 1-1 3.3-4.7 5.2-8.1 1.8-3.5 4.3-9.7 5.5-13.8 1.1-4.1 2.1-10.1 2.1-19l-7.5-1c-4.1-0.6-9.4-1-11.8-1-2.7 0.1-5.2-0.6-7-2-2-1.5-2.7-2.8-2.7-5.5 0-2.3 0.8-4.2 2.2-5.7 2.2-2 2.9-2.1 12.3-1.5 5.5 0.4 11.1 1 12.4 1.4 2.2 0.8 2.3 0.6 2-2.7-0.4-3-0.9-3.6-4.4-4.6-2.2-0.6-7.2-2.8-11-4.8-3.9-1.9-8.8-5-10.9-6.8-2.2-1.8-5.1-5.1-6.7-7.3-1.5-2.2-3.4-6.7-4.2-10-0.8-3.3-1.8-9.4-2.1-13.5-0.5-5.8-0.2-8.9 1.3-14 1.1-3.6 2.9-8.4 4-10.7 1.2-2.4 2.4-4.3 2.8-4.3 0.5 0 2-2 3.5-4.5 1.6-2.5 3.1-4.5 3.5-4.5 0.5 0 1.5-1.1 2.3-2.6 0.8-1.4 3.1-3.6 5-4.7 1.9-1.2 4.3-3.1 5.3-4.2 1.1-1.1 3.7-4.7 6-8 2.2-3.3 4.8-6.9 5.8-8 1-1.1 3-3.4 4.6-5.1 1.5-1.7 5.3-4.8 8.3-6.8 4.4-2.9 6.5-3.6 10.2-3.6zm829.5 8c5.1 0 5.5 0.2 11.9 6.3 3.7 3.4 7.4 7.8 8.4 9.7 1 1.9 2.5 6.2 3.5 9.5 1.1 4 1.5 7.9 1.2 11.5-0.3 3-1 8.2-1.6 11.5-0.6 3.3-2 8.7-3.1 12-1.2 3.3-2.3 6.7-2.6 7.5-0.3 1.2 0.2 1.4 2.3 1 1.5-0.3 4.1-2 5.7-3.9 1.7-1.9 3.9-4.2 4.8-5.2 1-1.1 1.8-2.5 1.8-3.1 0-0.7 1.1-3 2.5-5 1.4-2.1 2.5-4.3 2.5-4.8 0-0.5 0.6-2.2 1.4-3.7 0.7-1.6 2.8-6.4 4.6-10.8 1.8-4.4 3.9-10 4.6-12.5 0.8-2.5 1.9-4.9 2.5-5.5 0.5-0.5 0.9-1.8 0.9-2.7 0-1 1.3-3.1 3-4.8 2.4-2.4 3.7-3 6.7-2.7 3.1 0.2 4.2 0.9 7 4.7 2 2.8 4.2 8 5.8 13.5 1.4 5 3.5 15.1 4.6 22.5 1.1 7.4 2.5 16 2.9 19 0.5 3 1.4 6.7 1.9 8.3 0.6 1.5 1.1 3.8 1.1 5.2 0 1.4 0.9 5.8 1.9 9.8 1.1 3.9 2.5 9.9 3.1 13.2 0.7 3.3 1.6 8 2 10.5 0.5 2.5 1.5 8.9 2.4 14.3 0.9 5.3 2.3 14.1 3.2 19.5 0.9 5.3 1.9 12 2.4 14.7 0.4 2.8 1.1 5.9 1.5 7 0.4 1.1 0.1 3.2-0.6 4.8-0.8 1.5-2.7 3.3-4.4 3.9-2.4 0.9-3.5 0.9-5.5-0.3-1.4-0.8-3-2.6-3.7-3.9-0.6-1.4-1.7-5.4-2.3-9-0.6-3.6-1.7-10.6-2.5-15.5-0.8-4.9-2.1-13.1-2.9-18-0.8-4.9-1.9-11.5-2.5-14.5-0.5-3-1.5-8-2.1-11-0.6-3-2-9.1-3-13.5-1-4.4-2.6-11.8-3.5-16.5-0.9-4.7-2.1-10.5-2.6-13-0.4-2.5-1.5-9.7-2.4-16-0.8-6.3-1.9-11.8-2.3-12.3-0.4-0.4-1.9 2.2-3.5 5.8-1.5 3.6-2.7 7-2.7 7.5 0 0.6-2.2 5.6-4.9 11.3-2.7 5.6-5.9 11.5-7.2 13-1.3 1.6-3.9 4.4-5.7 6.3-1.7 1.9-4.2 4.1-5.5 4.9-1.2 0.8-4.5 2.1-7.2 3-2.8 0.8-7 1.5-9.5 1.5-4.1 0-4.7 0.3-6.2 3.2-1 1.8-4.3 7.5-7.5 12.5-3.2 5.1-6.5 10-7.4 11-1 1-2.8 2.7-4 3.9-1.3 1.1-3.1 2.9-4 4-1 1-3 3-4.5 4.3-1.6 1.3-5.8 4.4-9.4 6.7-3.6 2.4-9.4 5.2-13 6.2-3.6 1.1-9.4 2.2-13 2.6-3.8 0.5-10.7 0.2-16.5-0.5-9-1.1-10.7-1.6-16.4-5.3-3.5-2.2-7.9-5.9-9.8-8.1-2.3-2.8-3.3-5-3.3-7.2 0-1.9 0.8-4.1 2-5.3 1.2-1.2 3.3-2 5.5-2 2.8 0 4 0.7 5.9 3.3 1.3 1.7 4.1 4.4 6.2 5.8 2.8 1.9 6.3 2.9 12.4 3.8 4.7 0.7 10.5 0.9 13 0.6 2.5-0.3 6.5-1.1 9-1.7 2.5-0.6 7.2-3 10.5-5.2 3.3-2.2 9.2-7.2 13-11.1 3.9-3.8 8.4-9.2 10-12 1.6-2.7 4.1-6.8 5.6-9 1.5-2.2 2.8-4.9 3-6.1 0.3-1.4-1.2-3.7-4.4-7.2-2.6-2.9-4.7-5.9-4.7-6.7 0-0.8-0.6-2.7-1.3-4.2-0.8-1.6-2.1-4.4-3-6.3-0.8-1.9-2.1-5.3-2.8-7.5-0.6-2.2-1.7-4.6-2.3-5.4-0.6-0.8-1.1-5.3-1-11 0-7.6 0.5-10.5 2.2-14.1 1.2-2.5 3.5-6.1 5.2-8 1.8-1.9 5-4.7 7.3-6.2 3.2-2.2 5.4-2.8 9.4-2.8zm225 5c2.4 0 3.8 0.7 5.3 2.8 1.2 1.5 2.1 3.3 2 4 0 0.6-0.5 2.2-1 3.5-0.6 1.2-2.7 3.2-4.8 4.3-2 1.2-6.6 2.9-10.2 3.8-5.5 1.5-7.9 1.6-15.5 0.7-5-0.6-12.4-1.6-16.5-2.2-7.2-1.2-7.7-1.2-12.4 1.2-4 1.9-5.5 3.5-8 8.1-1.7 3.1-4.1 6.2-5.4 6.7-1.2 0.6-2.8 1.1-3.5 1.1-0.6 0.1-2.4-0.8-4-2-2-1.5-2.7-2.9-2.7-5.2 0-1.8 0.9-5.1 2-7.3 1-2.2 3.4-5.6 5.2-7.6 1.8-2 5.1-4.8 7.3-6.2 2.2-1.4 6.7-3.1 10-3.8 4.7-0.9 7.7-0.9 14 0.1 4.4 0.6 11.4 1.6 15.5 2 4.9 0.5 8.9 0.4 11.5-0.3 2.2-0.6 4.9-1.7 6-2.4 1.1-0.7 3.5-1.3 5.2-1.3zm-954.7 9.5c3.4 0.3 5.3 1.2 7.8 3.7 1.8 1.8 4.5 5.8 5.9 8.8 1.4 3 3.4 8.2 4.5 11.5 1.1 3.8 2.2 12.3 2.9 23 0.9 12.5 0.9 20.6 0.1 30.5-0.6 7.4-1.6 16.2-2.3 19.5-0.6 3.3-1.1 7.1-1.1 8.5 0.1 1.4 0.7 3.8 1.5 5.5 0.8 1.7 2 4.1 2.7 5.5 0.7 1.4 2.6 3.7 4.4 5.2 1.7 1.5 5.1 3.3 7.6 4.1 3.9 1.3 4.9 1.3 7.5 0.1 1.8-0.9 4.6-4 7-7.7 2.2-3.4 5-9.8 6.2-14.2 1.3-4.4 3.1-8.6 4.1-9.3 0.9-0.7 3.1-1.2 4.7-1.2 1.6 0 4.4 0.9 6 2 1.6 1 4.8 3.8 7.1 6.2 2.6 2.7 5.6 4.8 8.5 5.7 3.6 1.1 4.9 1.1 6.9 0.1 1.4-0.7 3.9-2.4 5.5-3.7 2.2-1.8 3.9-2.4 6.4-2.1 2.2 0.2 4.1 1.2 5.4 2.8 1.3 1.7 1.7 3.3 1.3 5.3-0.3 1.5-1.8 3.9-3.3 5.4-1.6 1.4-5.5 3.9-8.8 5.5-3.3 1.5-7.4 2.8-9 2.8-1.6 0-5.2-0.6-8-1.5-2.7-0.8-7.1-2.8-14.5-7.5l-1.2 3.3c-0.7 1.7-3 5.8-5 9-2.1 3.1-5 6.9-6.5 8.3-1.6 1.5-4.8 3.6-7.3 4.7-2.5 1.1-6.3 2-8.5 2-2.2 0.1-6.5-0.7-9.5-1.6-3.4-1.1-7.8-3.5-11.5-6.6-3.3-2.7-6.8-6.4-9.7-11.6l-1.6 2.5c-0.9 1.4-3.9 4.7-6.7 7.4-2.7 2.7-7.5 6-10.5 7.4-3 1.3-7.5 3-10 3.7-2.5 0.7-7 1.6-10 2-3 0.3-8.7 0.1-12.5-0.5-3.8-0.6-9.1-2.2-16.5-6l-4.7 2.2c-3.9 1.8-7 2.3-16.8 2.6-11 0.4-12.2 0.2-14.7-1.7-2.1-1.6-2.8-3-2.8-5.6 0-2.2 0.8-4.3 2-5.5 1.7-1.7 3.3-2 12.3-2 5.6 0 11.2-0.4 12.5-0.8 2-0.6 2.2-1.1 1.5-3.7-0.4-1.7-0.8-6.8-0.8-11.5 0-7.9 0.2-8.9 3.2-13.5 1.7-2.8 4.6-5.8 6.2-6.8 1.7-0.9 4.3-1.7 5.9-1.7 1.8 0 3.8 1.1 6.2 3.6 2.6 2.6 3.7 4.8 4.2 8.2 0.4 2.6 0.3 7.4-0.1 10.7-0.5 3.3-1.6 7.5-2.5 9.3-0.9 1.7-1.6 3.6-1.6 4.2 0 0.6 0.8 1.3 1.8 1.6 0.9 0.3 4.4 1 7.7 1.4 3.6 0.5 8.4 0.5 12-0.2 3.3-0.5 6.9-1.6 8-2.4 1.1-0.8 2.7-1.4 3.5-1.4 0.8 0 3.5-1.9 5.9-4.2 2.5-2.4 6.2-7 8.3-10.3 3.5-5.5 3.7-6.2 2.4-8.5-0.7-1.4-2.3-4.5-3.5-7-1.1-2.5-2.1-5.2-2.1-6 0-0.8-0.6-2.4-1.3-3.5-0.8-1.1-2.1-5.3-3-9.2-1-4-2.3-10.3-3.1-14-0.8-3.8-2.1-9.7-2.8-13.3-0.7-3.7-1.3-13.1-1.3-37.5l3.5-5.3c2.3-3.4 4.5-5.5 6.5-6.2 1.6-0.5 5-0.7 7.5-0.5zm980 13c3.1 0.3 5.6 1.3 8 3.3 1.9 1.6 5.3 5.5 7.5 8.6 4 5.7 4 5.8 3.9 14.9 0 5.1-0.5 11.9-1.1 15.2-0.6 3.3-1.8 7.6-2.7 9.5-1.7 3.4-1.7 3.6 0.6 5.8 1.3 1.3 5 3.6 8.3 5.2 3.6 1.7 8.6 3.1 12.5 3.5 5.1 0.5 7.2 0.3 10-1.1 1.9-0.9 4.7-2.3 6.2-3.1 1.6-0.7 3.3-1.3 3.8-1.3 0.5 0 2.7-1.1 4.7-2.5 2.1-1.4 5.2-2.5 7-2.5 2.4 0 3.8 0.7 5.3 2.8 1.2 1.5 2.1 3.3 2 4 0 0.6-0.5 2.2-1 3.5-0.6 1.2-3 3.4-5.3 4.8-2.3 1.5-8.2 4.4-13.2 6.5-8.5 3.7-9.5 3.9-18.5 3.8-7.9-0.2-10.6-0.6-16-2.9-3.6-1.5-8.5-4.2-11-5.9-2.7-1.9-4.9-2.9-5.5-2.4-0.5 0.5-2.3 2-4 3.5-1.7 1.4-5.5 4.3-8.5 6.3-3 2.1-8.2 5-11.5 6.4-3.3 1.5-8.5 3.1-11.5 3.5-3 0.5-9.1 0.5-13.5 0.1-4.4-0.5-9.8-1.4-12-2-2.2-0.7-5.7-2.1-7.8-3.1-2-1.1-6-4-8.7-6.6-2.8-2.7-5-5.1-5-5.5 0-0.5-0.8-1.9-3.5-5.9l-1.5 2.5c-0.8 1.3-2.8 4.1-4.5 6.1-1.7 2.1-3.9 4.5-4.9 5.4-1 0.9-2.7 2.4-3.8 3.4-1 0.9-3.7 2.7-6.1 3.8-2.3 1.2-7.2 3-11 4-3.7 1.1-8.5 1.9-10.7 1.9-2.2 0-6.6-0.7-9.8-1.6-4.7-1.4-6.8-2.8-12.2-8.3-5.6-5.6-6.8-7.5-8.3-12.8-0.9-3.6-1.7-9.8-1.7-14.3 0-5.1 0.6-9.4 1.6-11.7 0.9-2.1 3.3-5.4 5.3-7.3 2.1-1.9 5.5-4.4 7.7-5.4 2.1-1.1 5.2-2.5 6.9-3.3 1.7-0.7 7.2-2.4 12.2-3.8 5.1-1.4 11.7-2.5 14.5-2.5 2.9 0 9.6 0.7 14.8 1.5 5.2 0.8 11.1 1.8 13 2.4 1.9 0.5 5.6 1.2 8.2 1.5 3.7 0.5 5.3 1.2 6.8 3.4 1.2 1.5 2.1 3.3 2 4 0 0.6-0.6 2.3-1.3 3.7-0.6 1.4-1.9 2.8-2.7 3-0.8 0.2-2.3 2-3.3 4-1.4 2.9-1.5 4.1-0.6 7.3 0.6 2 2.4 5.5 3.9 7.7 1.6 2.2 4.1 5.3 5.7 7 1.8 1.8 5.2 3.7 8.9 4.7 3.6 1.1 9.2 1.8 14.4 1.8 5.9-0.1 9.1-0.5 10.5-1.5 1.1-0.9 2.6-1.5 3.2-1.5 0.7 0 3.9-1.7 7-3.8 3.2-2.2 7.1-5.1 11.8-9.2l-5.3-6.2c-2.8-3.5-5.2-7-5.2-7.8 0-0.8-0.7-2.6-1.6-4-1.2-1.8-1.8-5.6-2.2-13.5-0.3-6.8-0.1-12.3 0.6-14.5 0.6-1.9 2.6-5.2 4.4-7.3 1.8-2 4.6-4.1 6.3-4.7 1.7-0.5 5-0.7 7.5-0.5zm-614.5 3.5c2.6 0 4 0.7 5.6 2.8 1.8 2.4 2 3.6 1.5 9.7-0.3 3.8-1.1 14.9-1.6 24.5-0.7 11-0.7 21.9-0.2 29.5 0.7 8.7 1.6 13.5 3.2 17.5 1.3 3 3.4 7 4.7 8.8 1.6 2.2 3.6 3.5 6.5 4.3 3.1 0.7 4.9 0.7 6.3 0 1.1-0.7 3.8-2.8 6.1-4.9 2.2-2 5-5.3 6.1-7.2 1.1-1.9 3-7 4.1-11.2 1.2-4.3 2.2-9.1 2.2-10.8 0-1.8 0.9-4 2.5-5.5 1.6-1.6 3.5-2.5 5.7-2.5 1.9-0.1 4 0.7 5 1.7 1 1 2.6 5 3.6 8.8 1.1 3.8 2.5 9.9 3.2 13.5 0.7 3.7 2.4 8.2 3.9 10.5 1.5 2.2 4.2 6.5 6 9.5 1.7 3 4.8 6.5 6.7 7.8 3 1.9 3.9 2.1 7.6 1.1 2.4-0.6 5-1.6 5.9-2.2 0.8-0.7 2.9-3.2 4.5-5.7 1.7-2.5 3.8-7.2 4.7-10.5 1-3.3 2-10.1 2.4-15 0.5-6.7 1.1-9.4 2.5-10.7 1-1 3-1.8 4.5-1.8 2.6 0 2.8-0.3 2.5-3.8-0.2-2.4 0.5-5.1 2-7.7 1.7-3 3.9-4.8 8.3-7 5.6-2.8 6.7-3 29-3l6.2 4.3c3.5 2.3 7.5 5.8 9 7.7 1.9 2.4 3.6 3.5 5.3 3.5 1.4-0.1 3.3 0.7 4.2 1.7 1 1 2.7 5.2 3.8 9.3 1.2 4.1 2.9 9.1 3.8 11 1 1.9 2.9 5.2 4.2 7.2 1.4 2 3.7 4.4 5.2 5.2 1.7 1 4 1.4 5.8 1.1q3-0.5 3-2.2c0-1 0.6-2.7 1.5-3.8 0.8-1.1 1.5-2.8 1.5-3.7 0-1 0.9-2.7 2-3.8 1.2-1.2 3.3-2 5.5-2 2.6 0 4 0.7 5.6 2.8 1.4 1.9 1.9 3.6 1.5 5.7-0.3 1.7-1.7 5.6-3.1 8.8-1.4 3.1-3.7 6.9-5.3 8.3-1.5 1.4-5.2 3.2-8.2 4.1-3.5 1-7 1.3-9.5 0.9-2.2-0.4-5.8-1.8-8-3.2-3.2-2.1-4.2-2.3-4.7-1.3-0.4 0.8-0.8 2.1-0.8 2.9 0 0.8-1.3 4.1-2.8 7.3-1.5 3.2-2.9 5.7-3.2 5.7-0.3 0-1.9 1.1-3.5 2.6-1.6 1.5-6.1 4-10 5.7-3.9 1.6-9 3.1-11.5 3.4-2.8 0.3-5.8 0-8-0.9-1.9-0.9-7.5-5.3-12.5-10-5-4.6-10.4-10.5-12-13.1-1.6-2.6-3.2-4.7-3.5-4.7-0.3 0-1.9 2.3-3.5 5.1-1.6 2.8-4.6 6.7-6.5 8.7-1.9 1.9-5.3 4.3-7.5 5.3-2.2 0.9-6.5 2.3-9.5 2.9-3 0.7-6.6 1-8 0.7-1.4-0.3-5.2-2.3-8.5-4.5-4-2.6-7.2-5.7-9.8-9.5-2-3.1-3.7-5.9-3.7-6.2 0-0.3-1.7-3-3.8-6-2-3.1-3.9-5.6-4.2-5.5-0.3 0-1.6 2-3 4.5-1.4 2.5-2.7 4.5-3 4.5-0.3 0-2.1 1.4-4 3.1-1.9 1.7-5.3 4.1-7.5 5.5-2.2 1.3-6 2.6-8.5 3-2.9 0.4-6.5 0-10-1-3-0.8-7.4-3.1-14-8.6l-3.3 6c-1.7 3.4-3.4 6-3.7 6-0.3 0-2.1 1.3-4 3-2 1.8-6.5 4-10.5 5.3-5.2 1.6-9.5 2.2-16.5 2.2-9.4 0-9.6 0-17-4.4-4.3-2.5-10.6-7.5-14.8-11.8-3.9-4-7.2-8.1-7.2-9 0-1-0.6-2.7-1.4-3.8-0.7-1.1-1.6-3.5-2-5.2-0.3-1.8-1.1-3.1-1.6-2.8-0.5 0.3-1.9 2.2-2.9 4.3-1 2-4.1 6-6.8 8.7-2.6 2.8-6.8 6.4-9.3 8.1-2.5 1.7-7.9 4.8-12 6.9-7.1 3.6-8 3.8-17.7 3.9-9.7 0.1-10.3 0-14.5-2.9-3.6-2.6-4.3-3.7-4.6-6.8-0.1-2.6 0.4-4.3 1.8-5.7 1.1-1.1 3.3-2 5-2 1.6 0 4.2 0.8 5.7 1.7 2.2 1.3 4 1.5 8 1 2.9-0.4 7.4-1.6 10-2.8 2.7-1.1 6.8-3.5 9.3-5.2 2.5-1.7 4.9-3.8 5.5-4.6 0.5-0.9 1.9-2.5 3.1-3.6 1.3-1.1 3.8-4.5 5.6-7.5 1.9-3 3.7-6.6 4-8 0.4-1.4 1.8-3.7 3.2-5.2 1.7-1.9 3.6-2.8 5.6-2.8 1.6 0 3.9 0.5 5 1 1.8 0.9 2.1 0.6 2.5-3.2 0.3-2.4 1.8-6.1 3.2-8.3 1.4-2.2 3.5-5 4.7-6.1 1.2-1.2 4.3-3 7.1-4.1 2.7-1.1 7.7-2.6 11-3.2 3.3-0.6 8.2-1.1 11-1.1 2.7 0 8.6 1 13 2.2 4.4 1.1 9.2 2.9 13.5 5.8l0.5-4.2c0.2-2.4 0.7-9.5 1-15.8 0.3-6.3 0.8-14.7 1.2-18.5 0.5-4.8 1.2-7.6 2.5-8.7 1-1 3.3-1.8 5.3-1.8zm41.2 22.2q3.6 0.3 5.6 2.8c1.3 1.7 1.7 3.3 1.3 5.3-0.3 1.5-1.3 3.4-2.1 4.2-0.8 0.8-2.7 1.8-4.3 2.1-1.9 0.4-3.5 0-5.2-1.3-1.7-1.4-2.6-3.1-2.8-5.6-0.1-2.6 0.4-4.3 1.9-5.8 1.4-1.4 3-1.9 5.6-1.7zm-347 13q3.6 0.3 5.6 2.8c1.3 1.7 1.7 3.3 1.3 5.3-0.3 1.5-1.3 3.4-2.1 4.2-0.8 0.8-2.7 1.8-4.3 2.1-1.9 0.4-3.5 0-5.2-1.3-1.7-1.4-2.6-3.1-2.8-5.6-0.1-2.6 0.4-4.3 1.9-5.8 1.4-1.4 3-1.9 5.6-1.7zm72.3 7.8c3 0 6.9 0.2 8.5 0.5 1.6 0.3 5.2 2.3 7.9 4.3 2.8 2 6.4 5.7 8.2 8.2 1.9 2.5 4.2 7.7 5.3 11.5 1.8 6.1 1.9 7.9 1 14-1.1 6.8-1 7 1.2 8.5 1.3 0.8 4.3 3.5 6.7 6 2.3 2.5 6.5 7.9 9.1 12 3.2 4.9 5.5 10 6.7 14.5 1.7 6.8 1.7 7.2-0.2 15-1.4 5.9-3.3 10.2-7.6 17-3.2 4.9-7.7 11-10.1 13.5-2.3 2.5-5.8 5.6-7.7 6.9-1.9 1.3-3.9 2.9-4.5 3.5-0.6 0.7-2.4 2.1-4 3.3-1.6 1.2-8.4 4.4-15 7.3-6.6 2.8-14.7 6.2-18 7.5-3.3 1.3-9.4 3.3-13.5 4.4-4.1 1.2-10.1 2.1-13.3 2.1-3.1 0-8.1-0.7-11-1.5-3.1-0.9-7.4-3.3-10.7-6-3-2.5-6.6-6-8-7.9-1.4-1.8-3.7-4.9-5.1-6.7-1.5-1.9-3.6-5-4.7-6.9-1-1.9-2.7-6.4-3.7-10-1.3-4.6-1.6-8.1-1.2-12 0.5-4 1.7-7 4.3-11 2.1-3 6.2-7.9 9.3-10.9 3.1-2.9 8.5-7 12.1-9.1 3.8-2.1 10.7-4.8 16.5-6.3 5.5-1.5 12-2.9 19-3.8l-0.4-5.7c-0.4-5.3-0.2-6.2 3.6-12.2 3.4-5.4 5-6.9 9.5-9 4.6-2.2 6.7-2.5 25.6-2.5l0.4-3c0.2-1.7-0.2-5.1-0.9-7.7-0.9-3.2-2.7-6.2-5.3-8.8-3.1-3.1-4.8-4-7.5-4-1.9 0-4.5 0.5-5.8 1.2-1.2 0.6-2.9 1.9-3.9 2.7-0.9 0.9-2.3 3.4-3.2 5.6-0.9 2.3-2.6 4.5-4.1 5.3-1.4 0.6-3.1 1.2-3.8 1.2-0.6 0.1-2.4-0.8-4-2-1.8-1.3-2.7-2.9-2.7-4.7 0-1.6 0.4-4.4 1-6.3 0.5-1.9 2.6-5.4 4.7-7.8 2.1-2.3 6-5.6 8.8-7.2 3.8-2.2 6.3-2.9 10.5-3zm978.7 73.2q3.6 0.3 5.6 2.8c1.3 1.7 1.7 3.3 1.3 5.3-0.3 1.5-1.3 3.4-2.1 4.2-0.8 0.8-2.7 1.8-4.3 2.1-1.9 0.4-3.5 0-5.2-1.3-1.7-1.4-2.6-3.1-2.8-5.6-0.1-2.6 0.4-4.3 1.9-5.8 1.4-1.4 3-1.9 5.6-1.7zm-260.7 99.1c3.6 0.2 8 1.1 9.7 2 1.8 0.9 4.5 2.3 6 3.1 1.6 0.8 4.8 3.9 7.2 6.8 2.4 2.9 5.5 7.8 6.9 10.8 2.3 5 2.5 6.7 2.6 18.5 0 9.7-0.5 14.5-1.8 19-1 3.3-3.3 9.1-5.1 13-1.8 3.9-6.4 11.7-10.2 17.5-3.8 5.8-8.4 13.1-10.3 16.3-1.9 3.1-3.8 5.7-4.3 5.7-0.4 0-2.4 2.7-4.5 6-2 3.3-3.9 6-4.2 5.9-0.3 0-2.3 2.8-4.6 6.3-2.2 3.5-5.8 9.1-8 12.5q-3.9 6.2-7.9 8.4c-3.4 1.9-4.5 2-7.5 1.1-1.9-0.6-5.4-3-7.6-5.4-2.3-2.4-6.5-6.1-9.4-8.3-2.9-2.2-8.2-6.4-11.9-9.4-3.6-3-8.6-7.3-11-9.5-2.4-2.3-7.8-8.2-12-13.3-4.2-5-9-10.9-10.7-13-1.7-2.1-4.9-6.5-7.1-9.8-2.2-3.3-4.9-7.6-6-9.5-1.1-1.9-3.4-8.6-5.2-14.7-1.8-6.7-3.1-13.6-3.1-17 0-3.2 0.4-7.4 0.9-9.3 0.5-1.9 2.1-4.3 3.5-5.2 1.4-1 3.4-2.6 4.3-3.6 1-1 3.4-2.2 5.3-2.7 1.9-0.4 4.6-1.5 6-2.4 2-1.3 5.4-1.6 19-1.6 15.8 0 16.9 0.1 21.6 2.5 2.7 1.4 6.8 4.4 9.1 6.8 2.4 2.3 4.5 4.2 4.8 4.2 0.3 0 1.8-2.5 3.5-5.5 1.7-3 5-7.4 7.4-9.7 2.4-2.4 5.5-5.2 6.8-6.4 1.2-1.1 3.9-3.1 5.8-4.4 1.9-1.3 6.2-3.2 9.5-4.2 3.9-1.1 8.3-1.7 12.5-1.5zm-502.6 22.9c2.4 0.3 6.1 1.8 8.8 3.6 2.7 1.8 5.3 4.2 5.9 5.5 0.9 1.6 0.9 3 0.1 5.2-0.7 1.9-2.4 3.5-4.4 4.4-3 1.3-3.6 1.3-6.3-0.4-1.7-1-4.4-2.5-6-3.3-1.7-0.8-3.8-2.2-4.8-3.1-1-0.9-1.8-3-1.7-4.8 0-2 0.8-4.1 2.1-5.4 1.7-1.7 3.1-2 6.3-1.7zm-91.1 31c5.1 0.3 5.3 0.4 8.9 5.8 2.7 3.9 4 7.3 4.8 12 0.6 3.6 1.6 10.3 2.1 15 0.5 4.7 1.1 18.6 1.1 31 0.2 16.1-0.2 24.5-1.2 29.5-0.8 3.9-1.5 9.8-1.5 13.2 0 5.7 0.3 6.5 3.5 9.8 1.9 1.9 3.8 3.5 4.1 3.5 0.4 0 1.7-1.1 3-2.3 1.4-1.4 3.1-5.1 4.1-9 1-3.7 1.8-9.2 1.8-12.2 0-3-0.8-8.4-1.8-12-1.3-4.8-1.4-7.1-0.7-9.2 0.7-1.8 2.1-3.1 4.2-3.8 1.8-0.6 4-1.7 5-2.6 1-1 2.8-2.9 4-4.3 1.7-1.9 3.3-2.6 5.8-2.6 2.7 0 4 0.7 5.5 2.8 1.2 1.5 2.1 3.4 2 4.2 0 0.8-0.9 3-2 4.8-1.1 1.7-3.2 4.4-7.5 8.4l0.2 14.9c0.3 13.5 0.5 15.2 2.5 18.4 1.7 2.4 3.2 3.5 5.3 3.7 1.7 0.2 4.4-0.5 6.2-1.7 1.7-1.1 4-3.4 5-5 0.9-1.6 2.4-3.7 3.3-4.5 0.8-0.8 2.5-3.7 3.7-6.5 1.3-3.1 2.4-8.3 2.8-13.5 0.4-4.7 1.3-10.9 2.1-13.7q1.4-5.3 4.1-7.4c2.3-1.7 3.7-2 7.8-1.5 2.9 0.4 6.2 1.6 8 3 1.6 1.3 3.9 4.1 4.9 6.2 1.1 2.1 2.5 5.3 3.2 6.9 0.6 1.6 1.7 5.9 2.4 9.5 0.7 3.6 1.8 8.1 2.6 10 0.8 1.9 2.3 4.1 3.4 4.8 1.6 1 2.3 1 3.6 0 0.9-0.7 2.7-3.5 4-6.3 1.4-3 3-9 3.8-15 1.1-7.5 1.9-10.3 3.3-11.3 1-0.7 3.4-1.2 5.3-1 2.5 0.2 4 1.1 5.5 3.3 1.1 1.7 2.8 6.4 3.7 10.5 0.9 4.1 2.3 10.2 3 13.4 0.8 3.7 2.2 6.7 3.8 8.3 1.4 1.3 3 2.4 3.6 2.3 0.6 0 2.2-1.1 3.5-2.4 1.3-1.3 3.9-4.8 5.7-7.8 2.7-4.5 3.5-7.2 4.9-17.3 1.2-8.6 2.2-12.5 3.5-13.7 1.2-1.2 3.1-1.7 5.5-1.5 2.5 0.1 4.2 1 5.4 2.7 1.1 1.4 2.3 5.2 2.8 8.5 0.5 3.3 1.4 8.7 2.1 12 0.7 3.3 1.9 7.8 2.8 10 0.9 2.2 2.3 4.8 3.1 5.8 0.9 1 2.6 1.8 3.8 1.7 1.3 0 3.5-0.6 5-1.4 1.6-0.7 4.6-4 6.8-7.2 3.8-5.6 4-6.3 4-13.5 0-5.5-0.5-8.6-2-11.7-1.1-2.2-2.9-4.3-4-4.6-1.1-0.3-3.1-0.3-4.5 0-1.6 0.4-3.5-0.2-5.3-1.5-2-1.6-2.7-3-2.7-5.6 0-2.2 0.8-4.3 2-5.5 1.1-1.1 3.7-2.3 5.7-2.6 2.1-0.3 5.6-0.1 7.8 0.4 2.5 0.7 4.6 0.7 5.7 0.1 1-0.5 3.1-0.9 4.8-0.9 1.9 0 3.6 0.8 4.8 2.3 1.2 1.5 2.2 5.8 3.1 13.2 0.8 6.1 1.7 12.1 2.1 13.5 0.5 1.9 0.8 0.9 1.3-4 0.4-4.2 1.7-8.7 3.6-12.5 2.1-4.3 4.2-6.8 7.3-8.9 2.3-1.6 7-3.7 10.3-4.6 3.3-1 8.9-2.1 12.5-2.5 6.4-0.7 6.6-0.7 8.8 2.1 1.2 1.6 2.3 3.5 2.2 4.2 0 0.6-0.5 2.2-1 3.5-0.6 1.2-2.2 2.8-3.8 3.6-1.5 0.7-5.2 1.7-8.2 2.1-3 0.4-7.2 1.5-9.3 2.4-2 0.9-4.5 2.8-5.4 4.4-1 1.5-1.9 4.7-2.1 7.2-0.3 2.5 0 6.9 0.7 9.8 0.8 4 1.9 5.8 4.3 7.7 2.3 1.8 4 2.4 5.8 2 1.6-0.4 3.8-2.6 6.2-6.3 2.1-3.1 4.4-7.9 5.2-10.7 0.8-2.7 1.7-7.1 2-9.7 0.4-2.8 1.4-5.6 2.6-6.8 1.4-1.4 3.1-1.9 5.7-1.7 2.5 0.1 4.2 1 5.5 2.7 1 1.4 3.1 7 4.6 12.5 1.5 5.5 3.4 11.1 4.3 12.5 0.9 1.4 3.3 3.1 5.5 3.7 2.1 0.7 5.2 1 6.9 0.7 1.6-0.3 3.8-1.1 4.7-1.7 1.5-1.1 1.5-1.6 0.1-6.7-1.1-3.8-1.4-8.3-1.2-14.5 0.4-8 0.8-9.6 3.7-14.2 1.7-2.9 3.5-5.3 3.9-5.3 0.5 0 2.6-1.6 4.8-3.5 2.2-2 5.6-4 7.5-4.5 1.9-0.6 5.3-1 7.5-1 2.2 0 6.2 0.6 9 1.5 2.7 0.8 5.3 1.5 5.7 1.5 0.5 0 0.6-3.5 0.3-7.7-0.3-4.3-1.1-11.2-1.6-15.3-0.8-5.3-0.8-8.7 0-11.7 0.6-2.5 1.9-4.7 3.1-5.3 1.1-0.6 3.3-1 5-1 2.1 0 3.6 0.8 5 2.8 1.4 1.9 2.1 4.2 2.1 7.7-0.1 2.8 0.8 6.8 1.8 9 1 2.2 2.8 7.6 4 12 1.3 4.4 2.7 10.3 3.2 13 0.4 2.8 1.8 11.3 2.9 19 1.1 7.7 2.9 15.8 4 18 1.1 2.2 2.9 5.6 4.1 7.5 2 3 2.1 3.9 1.1 6.5-0.6 1.6-2.4 3.6-3.9 4.3-1.5 0.8-3.8 1.1-5.1 0.8-1.2-0.3-3.6-2.5-5.3-4.8-1.7-2.4-3.9-6.1-4.9-8.3-1-2.2-2.1-5.7-2.4-7.7-0.3-2.1-1.1-3.8-1.6-3.8-0.6 0-1 0.7-1 1.5 0 0.8-1.6 4.8-3.6 8.8-2 3.9-4.4 7.6-5.3 8.2-0.9 0.5-2.7 2-4.1 3.3-1.4 1.2-4.1 2.8-6 3.4-1.9 0.6-5.5 0.8-8 0.4-2.5-0.4-5.4-1.2-6.5-2-1.1-0.7-3.2-1.6-4.8-1.9-1.5-0.4-2.7-0.4-2.7 0.1 0 0.4-1.7 1.7-3.7 2.8-2.1 1.2-6.1 2.7-8.8 3.4-4 1.1-6.1 1.1-10.5 0.1-3-0.6-7.3-2.2-9.4-3.4-2.2-1.2-5.4-4-10.3-10.2l-2.9 4.5c-1.6 2.4-4.1 5.7-5.7 7.2-1.5 1.6-5 3.5-8 4.3-2.8 0.8-6.6 1.5-8.2 1.5-1.8 0-5.4-1.6-9-4-3.3-2.1-6.1-3.8-6.3-3.7-0.2 0.1 0.4 2.7 1.3 5.7 0.9 3 1.9 10.4 2.2 16.5 0.5 9.9 0.3 12-2.2 21-1.5 5.5-4 12.5-5.6 15.5-1.6 3-3.8 6.5-4.9 7.8-1.1 1.2-3.2 2.8-4.8 3.6-1.5 0.7-4.2 1.6-6 2-2.5 0.5-4.2-0.1-8.4-2.6-2.8-1.8-6.6-5.1-8.5-7.3-2.1-2.6-3.8-6.2-4.8-10.2-0.8-3.5-1.5-9.8-1.5-14 0.1-5.3 0.7-9.6 2.1-13.3 1.1-3 2.2-6.3 2.4-7.2 0.4-1.5-0.2-1.8-4.3-1.8-3.7 0.1-5.6-0.6-9-3-2.3-1.6-5.3-4.5-6.7-6.2-1.3-1.8-2.5-3.9-2.5-4.5 0-0.7-0.3-1.3-0.8-1.3-0.4-0.1-2 1.8-3.6 4.2-1.7 2.4-4.1 5.4-5.5 6.7-1.5 1.3-4.4 3.2-6.6 4.2-2.2 1-5.6 1.9-7.5 1.9-2.1 0-5.6-1.2-8.8-3-2.9-1.7-6.4-4.8-8-7-1.5-2.3-3-4.1-3.5-4-0.4 0-1.5 1.4-2.5 3-1 1.8-3.8 4.1-6.7 5.6-2.8 1.3-6.6 2.4-8.5 2.4-2.4 0-5.1-1.1-8.9-3.7-2.9-2.1-6.4-5.6-7.6-7.8-1.2-2.2-3.2-7.5-4.4-11.7-1.1-4.3-2.1-8.8-2.1-10 0-1.3-0.2-2.1-0.4-1.8-0.3 0.3-0.9 3.5-1.5 7.3-0.6 3.7-2.6 10.1-4.4 14.2-1.7 4.2-3.4 7.5-3.7 7.5-0.3 0-1.8 1.8-3.4 4.2-1.7 2.4-4.1 5.4-5.5 6.7-1.5 1.2-4.6 3.5-7.1 4.9-3.6 2.2-5.7 2.7-10.5 2.5-3.4 0-7.5-0.8-9.5-1.8-1.9-1-4.5-2.7-8-6l-2.3 2.4c-1.2 1.4-4 3.3-6.2 4.3-2.2 0.9-5.6 1.8-7.5 1.8-1.9 0-4.6-0.7-6-1.6-1.4-1-4-3.1-9-7.9l-3.1 3.5c-1.7 1.9-3.4 4-3.8 4.6-0.3 0.6-3.5 3-7.1 5.3-3.6 2.3-8.5 4.9-11 5.8-3.7 1.3-5 1.4-7 0.4-1.4-0.7-4.7-2.7-7.4-4.4-2.7-1.8-6.3-5.3-11.1-12.6l-3.5 5.7c-1.9 3.1-5.5 7.7-8 10.1-2.5 2.4-6.8 5.9-9.5 7.7-2.8 1.9-7.3 4-10 4.9-2.8 0.8-7.3 1.5-10 1.5-3.6 0-6.7-0.8-11-3-3.3-1.6-8.5-4.9-11.5-7.2-3-2.4-7.2-6.1-9.3-8.3-2.2-2.2-5.2-5.9-6.8-8.2-1.6-2.4-2.9-4.9-2.9-5.5 0-0.7-1.1-3-2.5-5-1.4-2.1-2.5-4.2-2.5-4.8 0-0.6-1.1-2.9-2.4-5.2-1.3-2.4-3.3-7.7-4.4-11.8-1.1-4.1-2.6-11.8-3.2-17-0.8-5.8-1-16.7-0.7-28 0.3-10.2 1-20.1 1.5-22 0.6-1.9 2.2-4.7 3.7-6.2 2-2.2 3.3-2.7 6.2-2.5 2.6 0.1 4.2 1 5.7 3 1.9 2.5 2 3.1 0.7 6-0.7 1.8-1.7 5.2-2.1 7.7-0.5 2.5-0.9 11-0.9 19 0 8 0.6 18.8 1.4 24 0.8 5.2 1.9 11.3 2.6 13.5 0.6 2.2 2.3 6.3 3.7 9 1.4 2.8 3 5.9 3.5 7 0.6 1.1 1.6 3.1 2.3 4.5 0.7 1.4 1.7 3.6 2.3 5 0.6 1.4 2.8 4.2 4.9 6.2 2 2.1 5.9 5.6 8.7 7.8 2.7 2.2 6.6 4.7 8.5 5.6 2.4 1.2 4.8 1.5 7.7 1 2.4-0.3 6.4-2 9-3.8 2.7-1.8 5.9-4.4 7.2-5.8 1.3-1.4 3.5-4.3 4.9-6.5 1.4-2.2 4-6.9 5.9-10.5 1.8-3.6 3.7-9.2 4.3-12.5 0.5-3.3 1-9.4 1-13.5 0-4.4-0.8-10.4-2-14.7-1.1-4-3.1-9.4-4.5-12-1.4-2.7-2.8-6.2-3.1-7.8-0.3-1.6-1.8-5.1-3.2-7.6-1.5-2.6-4.3-6.8-6.3-9.5-2-2.7-4.9-5.7-6.5-6.8-2.2-1.4-3.9-1.7-6.9-1.3-2.5 0.4-4.9 1.6-6.3 3.2-1.2 1.4-2.7 3.7-3.3 5.3-0.6 1.5-1.5 6.8-2 11.7-0.6 5.8-0.6 14.1 0.1 23.3 0.7 9.5 0.7 14.9 0 16.5-0.6 1.2-2.1 2.8-3.5 3.5-1.4 0.6-3.2 1.2-4 1.2-0.8 0-2.6-1-4-2.2-2.3-2.1-2.6-3.3-3.5-16.3-0.6-7.7-0.8-18.3-0.4-23.5 0.4-5.2 1.8-13.3 3.1-18 2.1-7.5 2.9-9 7.1-12.8 2.6-2.4 6.5-4.8 8.7-5.5 2.2-0.6 7.1-1.2 11-1.2 6.3 0 7.5 0.4 11.7 3.3 2.7 1.7 6 4.8 7.5 6.8 1.6 2 4.3 5.5 6.1 7.8 1.9 2.2 4.4 6.1 5.6 8.6 1.3 2.5 2.6 5.9 3 7.5 0.4 1.6 2 5.7 3.5 9 1.6 3.3 3.8 9.5 5 13.8 1.5 5.5 2.1 10.6 2.1 17.7 0 8.2 0.3 10.5 1.9 12.8 1.3 1.9 2.1 5.4 2.6 11.7 0.4 4.9 1.2 9.8 1.9 10.7 0.6 0.9 2.3 2.4 3.8 3.3 2.6 1.4 3 1.3 7-1.1 2.4-1.5 6-4.5 8.1-6.8 2-2.2 4.6-6 7.7-12.6l-2.1-8.7c-1.2-4.9-3.4-13.7-4.9-19.8-1.6-6.1-3.4-15.5-4-21-0.8-6.1-1.1-16.3-0.8-26 0.3-10.4 1.1-17.9 2.1-21.5 0.9-3 2.8-6.8 4.2-8.3 2.2-2.5 3.1-2.8 7.8-2.5zm-216.8 12.1c6.3 0.3 9.2 0.9 13.5 3 3 1.5 7.5 4.2 10 6.1 2.8 2.1 6.1 6 8.9 10.7 2.4 4.1 5.2 10.3 6.2 13.9 1.1 3.6 1.9 9.2 1.9 12.5 0 3.3-1.1 9.8-2.4 14.5-1.3 4.7-3.9 11.6-5.8 15.5-1.9 3.9-4.2 7.7-4.9 8.5-0.8 0.8-2.7 3.8-4.3 6.5-1.6 2.8-5.1 8.6-7.9 13-2.7 4.4-7 11.1-9.5 15-2.5 3.9-5 7.3-5.6 7.7-0.6 0.3-2.5 3.4-4.1 6.7-1.7 3.4-3.7 6.4-4.5 6.7-0.8 0.4-3.1 1-5 1.5-1.9 0.4-4.6 1.1-6 1.5-2.1 0.5-3.8-0.5-10-5.8-4.1-3.6-9.5-7.8-12-9.5-2.5-1.6-6.3-3.9-8.5-5.1-2.2-1.1-10.3-5-18-8.7-13.4-6.4-14.4-7.1-23-15.9-5-5-9.8-11-10.8-13.1-1-2.2-2.2-4.8-2.7-5.7-0.6-1-1.7-4.4-2.5-7.5-0.8-3.2-1.5-10.1-1.5-15.3 0-5.2 0.6-11.5 1.4-14 0.7-2.5 2.9-7 4.9-10 2.4-3.7 5.1-6.4 8.4-8.2 2.6-1.4 7.7-3.4 11.3-4.3 4.2-1.1 8.9-1.6 13.5-1.3 4.3 0.3 7.9 1.1 9.5 2.1 1.4 1 3.2 1.7 4 1.7 0.8 0.1 4.3 2.1 14 9l1.1-4.2c0.6-2.4 2.3-6.5 3.7-9.2 1.5-2.6 3.9-5.6 5.5-6.5 1.5-0.9 2.7-1.8 2.7-2.1-0.1-0.3 1.8-1.8 4.2-3.4 2.4-1.6 7-3.7 10.3-4.7 4.2-1.3 8.4-1.8 14-1.6zm626.2 21.7c8 0 11.2 0.4 14.5 1.9 2.4 1.1 5.9 3.7 7.9 5.8 2 2.1 5.1 7.1 6.8 11.1 1.7 3.9 3.1 7.5 3.1 8 0 0.4 2.4 4.5 5.2 9.2 2.8 4.7 6.5 9.6 8.2 11 1.7 1.3 4.9 2.6 7.1 2.9 2.7 0.3 4.8-0.1 6.5-1.3 1.4-0.9 4-1.6 5.7-1.6 2.4 0 3.8 0.7 5.3 2.8 1.2 1.5 2.1 3.3 2 4 0 0.6-0.5 2.2-1 3.5-0.6 1.2-2.7 3.2-4.8 4.3-2 1.2-5.8 2.6-8.5 3.3-4 0.9-5.7 0.8-11.5-0.8-5.6-1.7-7.7-3-18.8-13.6l-3 4.8c-1.6 2.7-4.4 6.4-6.2 8.3-1.7 1.9-4.4 4-6 4.7-1.5 0.8-4.7 2-7.2 2.7-4.3 1.2-4.8 1.1-9.8-1.6-3-1.6-7.1-4.9-9.1-7.4-2.1-2.5-5.5-7.2-7.7-10.5-2.2-3.3-4.8-7.7-5.7-9.7-1.1-2.5-1.7-6.4-1.7-11.5 0-4.3 0.6-10 1.3-12.8 0.7-2.7 2.1-6.1 3-7.5 1-1.4 4.5-4.2 7.9-6.2 6.2-3.7 6.4-3.8 16.5-3.8zm-287 13.2q3.6 0.3 5.6 2.8c1.3 1.7 1.7 3.3 1.3 5.3-0.3 1.5-1.3 3.4-2.1 4.2-0.8 0.8-2.7 1.8-4.3 2.1-1.9 0.4-3.5 0-5.2-1.3-1.7-1.4-2.6-3.1-2.8-5.6-0.1-2.6 0.4-4.3 1.9-5.8 1.4-1.4 3-1.9 5.6-1.7zm552 20.3c8.7 0.4 13 0.9 14.5 2 1.3 0.8 2.9 1.5 3.5 1.5 0.7 0 4.6 2.2 8.5 4.9 4 2.6 10.6 7.9 14.7 11.7 4.4 4.2 8.8 9.5 11.1 13.4 2 3.6 4.7 9.2 6 12.5 1.2 3.3 2.8 7.1 3.5 8.5 0.7 1.4 2.2 6.3 3.5 11 2 7.5 2.2 10 1.7 21.5-0.5 10.1-1.2 15.3-3.5 23-1.8 6.4-4.6 13-7.8 18.4-2.7 4.5-7.2 10.6-9.9 13.5-2.8 2.8-7.3 6.7-10 8.6-2.8 1.8-7.3 4.4-10 5.7-2.8 1.2-8.6 2.8-13 3.4-7.5 1.1-8.6 1-18-1.6-5.7-1.6-12.8-4.4-16.5-6.5-4.2-2.5-8.2-5.9-11.2-9.7-3.5-4.2-5.1-7.5-6.3-12-0.8-3.5-1.5-8.1-1.5-10.3q0-4 2-6c1.2-1.2 3.3-2 5.5-2 2.7 0 4 0.7 5.5 2.8 1.2 1.5 2.1 4.1 2.1 5.7 0 1.6 0.6 4.6 1.2 6.6 0.7 2 2.3 5 3.7 6.6 1.4 1.6 4.5 4.1 7 5.5 2.5 1.4 7.9 3.5 12 4.6 6.3 1.8 8.5 1.9 14 1.2 4.4-0.7 8.2-2 11.8-4.2 3-1.8 7.5-5.4 10-7.9 2.6-2.6 6.5-7.7 8.7-11.5 2.2-3.7 5-10.2 6.3-14.3 1.3-4.6 2.5-11.9 2.9-18.6 0.5-8.9 0.3-12.3-1.1-18-1-3.9-2.4-7.9-3.1-9-0.6-1.1-1.5-3.4-1.9-5-0.4-1.6-2.6-6.8-4.9-11.4-3.2-6.4-5.7-9.8-10.2-13.9-3.3-3-8.5-7.1-11.5-9.1-3-2-7.1-4.2-9-4.9-1.9-0.7-6.9-1.6-11-1.9-5.9-0.4-9.2-0.1-15.5 1.6-4.4 1.2-10.1 3.5-12.8 5.2-2.6 1.6-4.7 3.2-4.7 3.7 0 0.4-1 1.8-2.2 3.2-1.2 1.4-3.7 6.1-5.5 10.5-1.8 4.4-4 11.1-4.9 15-0.9 3.9-2.2 9.5-2.9 12.5-0.8 3-1.7 8.9-2 13-0.4 4.1-0.2 12.7 0.4 19 0.7 6.3 1.8 14.2 2.6 17.5 0.8 3.3 1.9 8.3 2.5 11 0.6 2.8 1.5 11.1 2 18.5 0.5 7.4 1.2 15.8 1.6 18.5 0.3 2.8 0.9 6.6 1.4 8.5 0.5 1.9 1.4 9.1 2 16 0.6 6.9 1.7 16.5 2.5 21.5 0.8 5 1.8 14 2.2 20 0.4 7.5 0.3 12-0.5 14-0.6 1.6-2.3 3.6-3.7 4.3-1.4 0.6-3.2 1.2-4 1.2-0.8 0-2.6-1-4-2.2-2-1.9-2.6-3.8-3.4-10.3-0.6-4.4-1.5-14.3-2.1-22-0.6-7.7-1.3-14.2-1.5-14.5-0.2-0.3-1.1-5.2-2.1-11-0.9-5.8-1.8-12.1-2.1-14-0.3-1.9-3.8-15.5-7.9-30.2-4.1-14.8-7.4-27.7-7.4-28.8 0-1.1-0.4-3.9-1-6.2-0.5-2.4-1.7-7.9-2.6-12.3-0.9-4.4-2.2-10.7-2.9-14-0.8-3.3-1.7-8.7-2.1-12-0.6-5.3-0.5-6.3 1.4-8.2q2.2-2.3 5.7-2.3c2.7 0 4 0.7 5.5 2.8 1.2 1.5 2 3.6 2 4.7 0 1.2 0.3 1.6 0.8 1 0.5-0.5 1.4-2.8 2-5 0.6-2.2 1.2-5.1 1.2-6.5 0-1.4 1-5.6 2.1-9.5 1.1-3.9 3-9.5 4.1-12.5 1.1-3 3-7.5 4.1-10 1.1-2.5 2.8-5.4 3.8-6.5 1-1.1 3-3.4 4.6-5.1 1.5-1.7 5-4.6 7.8-6.4 2.8-1.9 9.2-4.6 14.5-6.2 8.7-2.5 10.5-2.7 21.7-2.3zm301.8 18.1c8 0.4 9.2 0.7 11.2 2.9 1.3 1.4 2.3 3.2 2.3 4 0 0.8-0.6 2.6-1.3 4-0.6 1.4-1.9 2.8-2.7 3.2-0.8 0.3-6.9 0.7-13.5 0.9-6.6 0.1-14 0.7-16.5 1.4-2.5 0.6-5.7 2.4-7.1 3.8-1.4 1.5-3.8 4.5-5.2 6.7-1.4 2.2-3.9 9-5.5 15-1.6 6.1-3.4 13.7-4 17-0.6 3.3-1.4 10.3-1.8 15.5-0.3 5.3-0.2 12.8 0.4 17 0.6 4.1 1.7 12.9 2.3 19.5 1 9.2 1 12.7 0.1 15-0.6 1.6-2.3 3.6-3.7 4.3-1.4 0.6-3.1 1.2-3.8 1.2-0.6 0.1-2.4-0.8-4-2-1.8-1.3-2.7-2.9-2.7-4.7 0-1.6-0.9-6.8-2.1-11.8-1.1-5-4.3-17.3-6.9-27.5-2.6-10.2-5.1-20.5-5.4-23-0.4-2.5-1.3-5.4-2-6.5-0.7-1.1-1.6-3.4-2-5-0.4-1.6-1.6-4.9-2.7-7.2-1-2.4-1.9-4.5-1.9-4.8 0-0.3-1.7-3.1-3.9-6.2-2.1-3.2-4.6-6.5-5.5-7.3-1-0.8-1.7-2.9-1.6-4.7 0-1.9 0.9-4.2 2-5.3 1.2-1.2 3.4-2 5.2-2 2.4 0 4.1 0.8 6.4 3.2 1.8 1.8 4.9 6 7 9.3 2.2 3.3 5.2 9.4 6.8 13.5 1.5 4.1 3.3 8.5 4 9.8 0.6 1.2 1.4 1.9 1.7 1.5 0.3-0.5 2.1-6.4 3.9-13.3 2.5-9.6 4.2-14 7.4-18.8 2.2-3.5 4.3-6.3 4.6-6.2 0.3 0 1.2-1.1 2-2.6 0.8-1.4 3.1-3.4 5-4.4 1.9-1 5.3-2.3 7.5-3 2.2-0.6 6.9-1.6 10.5-2 3.6-0.5 10.5-0.6 15.5-0.4zm-158.8 20.5c2.4-0.1 7.1 0.6 10.5 1.5 3.8 1 8.7 3.3 12.3 5.8 3.3 2.3 7.7 6.4 9.7 9.1 2.1 2.8 4.4 6.4 5.2 8 0.8 1.6 2.1 4.6 2.9 6.5 0.8 1.9 2.7 6.6 4.1 10.5 1.4 3.9 4.9 15.3 7.7 25.5 2.8 10.2 5.5 21.9 5.9 26 0.5 5 0.3 10.6-0.6 17-0.7 5.2-2.1 11.8-2.9 14.5-0.9 2.8-2.9 7.7-4.5 11-1.6 3.3-4.4 7.7-6.2 9.8-1.8 2.1-5.8 6.4-8.8 9.4-3 3.1-7.5 6.6-10 7.8-2.5 1.2-7.1 3-10.3 3.9-3.1 0.9-8.5 1.6-12 1.6-3.4 0-8.5-0.7-11.2-1.6-2.8-0.8-6.8-2.8-9-4.3-2.2-1.6-6-5.2-8.5-8.2-2.5-2.9-5.2-6.7-6.1-8.4-0.9-1.6-2.5-4.8-3.7-7-1.2-2.2-3-6.1-4.2-8.7-1.1-2.7-2-5.4-2-6 0-0.7-0.6-2.2-1.4-3.3-0.8-1.1-1.9-4.9-2.5-8.5-0.6-3.6-1.1-11.3-1.1-17.2 0-6.3 0.7-13.6 1.6-17.5 0.8-3.8 2.2-9.5 3-12.8 0.9-3.3 2-10.3 2.5-15.5 0.5-5.2 1.7-12.2 2.6-15.5 0.8-3.3 2.2-7 2.9-8.2 0.8-1.3 1.4-3 1.4-3.8 0-0.8 1.2-2.9 2.7-4.7 1.6-1.7 4.4-4.8 6.3-6.8 1.9-2.1 4.6-4.3 6-5 1.4-0.8 5-2.1 8-3.1 3-0.9 7.4-1.8 9.7-1.8zm298.3 188.1c2.7 0.2 3.9 1 5.5 3.5 1.1 1.8 2.7 3.3 3.5 3.3 0.8 0 3.3 0.9 5.5 2 2.2 1.1 4.4 1.9 5 1.9 0.5 0 3.8 2.8 7.2 6.1 3.5 3.3 8.6 9.5 11.5 13.8 2.8 4.2 5.5 9.1 6 10.7 0.5 1.6 1.7 9.1 2.8 16.5 1.1 7.4 2 16.9 2 21-0.1 5.1-0.9 10.6-2.9 17.5-1.5 5.5-4.2 12.9-5.9 16.5-1.7 3.6-4.7 8.3-6.6 10.5-1.9 2.2-3.9 4.4-4.3 4.8-0.4 0.4-2.6 2.3-4.8 4.2-2.2 1.9-7.3 4.8-11.3 6.5-5.5 2.3-8.7 3-13.7 3-4.4 0-7.7-0.6-10.3-1.9-2-1.1-6-4.3-8.8-7.3-2.8-2.9-6-6.7-7.1-8.3-1.1-1.6-3.1-6.8-4.4-11.5-2.1-7.4-2.4-10.6-2.3-24.5 0-15.7 0.1-16.3 4.2-31 2.3-8.2 5.5-18 7-21.7 1.5-3.7 2.4-7 1.9-7.3-0.4-0.3-3.9 1.1-7.7 3-3.8 1.9-7.6 3.5-8.3 3.5-0.6 0.1-2.4-0.8-4-2-2-1.5-2.7-2.9-2.7-5.2 0-1.8 0.5-4.1 1.2-5 0.7-0.9 5.6-3.8 10.8-6.5 5.2-2.8 11.9-5.6 14.7-6.3 3.8-1 5.9-2.3 7.4-4.5 1.2-1.6 2.9-3.6 3.8-4.3 0.9-0.7 3.2-1.2 5.1-1zm-264.3 3.8c2.5 0 3.8 0.7 5.3 2.8 1.2 1.5 2.1 3.3 2 4 0 0.6-0.5 2.2-1 3.5-0.7 1.3-5.4 4.6-11.8 8.1-5.9 3.3-15.7 8.5-21.7 11.6-6.1 3.1-15.1 7.8-20 10.5-5 2.7-10.8 6.1-13 7.5-2.2 1.5-8.1 4.9-13 7.5-5 2.7-11.7 6.7-15 8.8-3.3 2.2-7 5-8.1 6.1-1.2 1.2-5.9 4.3-10.5 7.1-4.6 2.7-9.1 5.6-9.9 6.5-0.8 0.8-3.1 2.6-5 3.9-1.9 1.4-4.7 3.6-6.1 5-1.5 1.4-4.4 4-6.5 5.6-2.1 1.6-9.7 8.8-16.9 15.8-7.4 7.3-14.1 13.1-15.5 13.4-1.6 0.3-3.4-0.2-5-1.4-1.7-1.4-2.6-3.1-2.8-5.6-0.2-3.2 0.5-4.4 5-9.4 2.9-3.1 6.3-6.5 7.6-7.7 1.2-1.2 5.1-4.8 8.5-8.1 3.5-3.3 8.5-7.8 11.2-10 2.6-2.2 5.5-4.7 6.4-5.6 0.9-0.8 3.2-2.6 5.1-4 1.9-1.3 4.2-3.1 5-3.9 0.8-0.9 5.3-3.8 9.9-6.5 4.6-2.8 9.3-5.9 10.5-7.1 1.1-1.1 4.8-3.9 8.1-6.1 3.3-2.2 10-6.2 15-8.8 4.9-2.6 10.8-6 13-7.5 2.2-1.5 8-4.9 13-7.5 4.9-2.7 10.6-5.9 12.5-7.2 1.9-1.3 4.1-2.3 4.7-2.3 0.7 0 3-1.1 5-2.5 2.1-1.4 4.4-2.5 5-2.5 0.7 0 3-1.1 5-2.4 2.1-1.4 7.6-4.5 12.3-7 4.9-2.6 9.9-4.6 11.7-4.6zm123.1 35.2c2.8 0.2 4.1 1 5.7 3.4 2 3 2.2 3.1 11.7 3.8 6.1 0.4 10.7 1.2 12 2.1 1.3 0.8 3 1.5 3.8 1.5 0.8 0 4 1.3 7 2.8 2.9 1.5 7.6 4.7 10.3 7.2 2.8 2.5 8.9 9.2 13.7 15 4.8 5.8 10.6 13.6 13 17.5 2.5 4.1 5.2 10.5 6.6 15.5 1.3 4.7 2.4 10.3 2.4 12.5 0 2.2-0.7 6.7-1.6 10-0.8 3.3-3 8.4-4.7 11.3-1.8 2.9-3.5 5.2-4 5.2-0.4 0-1.6 1.5-2.6 3.3-1.1 1.7-3.1 4.6-4.6 6.2-1.4 1.6-3.5 3.9-4.5 5-1 1.1-6.2 4.7-11.6 7.9-5.5 3.3-11.9 6.5-14.4 7.2-2.5 0.8-6.6 1.4-9.3 1.4-2.9 0-7.2-1-11.3-2.7-3.6-1.6-9-4.8-12-7.3-3-2.5-6.1-5.9-7-7.5-0.8-1.6-1.4-4.2-1.4-5.7 0-1.6 0.9-3.7 2-4.8 1.2-1.2 3.3-2 5.2-2 1.8 0 4.2 0.8 5.2 1.8 1.8 1.7 1.9 1.3 1.3-17.3-0.4-10.5-1.3-23.3-2.1-28.5-0.8-5.2-1.9-12-2.4-15-0.5-3-1.7-7.1-2.5-9-0.9-1.9-2.2-5.7-3-8.5-0.8-2.7-1.9-5.9-2.4-7-0.6-1.1-1.7-3.6-2.6-5.5-0.8-1.9-2-5.1-2.6-7-0.6-1.9-1.1-4.7-1.1-6.2 0-1.6 0.9-3.7 2.1-4.9 1.5-1.4 3-1.9 5.7-1.7zm-172.1 35c2.5 0.2 4.2 1.1 5.4 2.8 1.4 1.9 2.2 6.4 3.3 20 0.8 9.6 2 25.1 2.6 34.5 0.5 9.4 1.5 21.3 2 26.5 0.6 5.2 1.5 12.6 2.1 16.5 0.6 3.9 2.9 13.5 5 21.5 2.1 8 4.9 16.5 6.3 19 1.3 2.5 4.6 6.5 7.3 9 2.7 2.5 6.7 5.4 8.9 6.4 2.1 1 4.8 2.4 5.9 2.9 1.1 0.6 4.2 1.5 7 1.9 2.7 0.5 7.7 1.1 11 1.5 4.6 0.4 6.6 0.2 8.5-1.1 1.4-0.8 4.7-1.9 7.5-2.2 4.7-0.6 5.1-0.5 7.3 2.2 1.2 1.6 2.3 3.5 2.2 4.2 0 0.6-0.6 2.3-1.3 3.7-0.8 1.6-3.4 3.4-7.7 5.2-5.4 2.3-8 2.8-15 2.8-4.7 0-11.7-0.6-15.5-1.3-3.8-0.7-8-2-9.3-2.8-1.2-0.7-2.8-1.4-3.5-1.4-0.6 0-4.1-1.9-7.6-4.3-3.5-2.3-9-7-12.2-10.4-3.3-3.5-5.9-6.8-5.9-7.3 0-0.5-0.8-2.2-1.9-3.7-1-1.6-3.8-9.8-6.2-18.3-2.3-8.5-4.6-17.7-5.1-20.5-0.5-2.7-1.2-8.4-1.7-12.5-0.5-4.1-1.9-20.5-3-36.5-1.2-16-2.6-33-3.1-38-0.5-5-1-10.7-1-12.7 0-2.5 0.7-4.5 2.1-5.9 1.4-1.4 3-1.9 5.6-1.7zm136 2c2.5 0.2 4.2 1.1 5.4 2.8 1.4 2 2 6.2 3 21 0.6 10.2 0.9 23.9 0.5 30.5-0.3 6.6-1.1 14.7-1.6 18-0.5 3.3-1.6 8.3-2.5 11-0.8 2.8-3.1 7.8-5.2 11.3-2.1 3.5-4.9 7.4-6.3 8.8-1.4 1.4-5.7 4.2-9.5 6.1-6.5 3.2-7.7 3.5-28 3.8l-7.5-4.5c-5.3-3.2-9.3-6.8-14.2-12.5-3.8-4.4-7.1-9.3-7.4-11-0.4-1.6-1.2-4.1-2-5.5-0.7-1.4-2-5.2-2.9-8.5-0.9-3.3-2.1-6.5-2.5-7-0.4-0.5-2.4-6.9-4.4-14-2-7.1-4.1-13.5-4.5-14-0.4-0.5-1.3-3.1-2-5.7-0.6-2.7-1.1-5.9-1.1-7.3 0-1.4 0.9-3.4 2-4.5 1.2-1.2 3.3-2 5.5-2 2.4 0 4 0.7 5.3 2.3 1 1.2 2.1 4 2.6 6.2 0.4 2.2 1.2 4.5 1.6 5 0.5 0.5 2.7 7.1 4.9 14.5 2.2 7.4 4.9 16.4 6.1 20 1.2 3.6 2.8 7.6 3.5 9 0.7 1.4 1.6 3.9 2 5.5 0.4 1.6 2.8 5.5 5.5 8.5 2.6 3 7.2 6.8 10.1 8.4 4.9 2.6 6 2.8 11.9 2.1 3.8-0.4 8.2-1.6 10.5-2.9 2.2-1.3 5.5-4.5 7.2-7.2 1.8-2.7 4-7.1 4.8-9.9 0.8-2.7 2-11.3 2.7-19 0.9-10.6 0.9-18.1 0-31-0.7-9.4-1.2-18.7-1.2-20.7 0-2.5 0.7-4.5 2.1-5.9 1.4-1.4 3-1.9 5.6-1.7z"/>
		<path id="Path 13" class="s3" d="m974 40c0.3 0 2.2 1.7 4.2 3.7 2.8 2.8 4.2 5.5 5.5 10.3 1.5 5.6 1.5 7.3 0.4 12.5-0.6 3.3-1.7 8.3-2.3 11-0.6 2.7-1.8 6.2-2.7 7.7-1.3 2.2-1.9 2.5-2.9 1.5-0.7-0.6-1.2-1.8-1.2-2.5 0-0.6-0.6-2.4-1.3-4-0.8-1.5-2.1-4.3-2.9-6.2-0.9-1.9-2.4-5.8-3.4-8.5-1.1-3.1-1.7-7.3-1.6-11 0.1-3.7 0.8-7 1.8-8.5 0.9-1.4 2.6-3.3 3.8-4.2 1.1-1 2.3-1.8 2.6-1.8zm-728.9 18.5c1.1 2.2 2.6 6.2 3.5 9 0.8 2.7 2 12.2 2.6 21 0.6 9.2 0.7 19-0.5 30l-1.4-6c-0.7-3.3-2-9.4-2.9-13.5-0.8-4.1-2-9.5-2.5-12-0.6-2.5-1.3-9.9-1.7-16.5-0.3-6.6-0.2-12.9 0.2-14 0.7-1.8 1-1.5 2.7 2zm977.9 8.5c0.6 0 2.4 1.9 4 4.2 2.4 3.4 3 5.3 3 8.8-0.1 2.5-0.7 7.1-1.3 10.4-1.1 5.4-1.3 5.7-2.7 4.1-0.8-1-2.1-3.4-2.8-5.4-0.7-2-1.5-6.5-1.9-10.1-0.3-3.6-0.3-7.7 0.1-9.3 0.3-1.5 1.1-2.7 1.6-2.7zm-1118.8 9l0.8 2.3c0.4 1.2 0.8 4.7 0.9 7.7 0.1 3 0.8 6.8 1.7 8.5 0.8 1.7 2.2 5.5 3.1 8.5 0.8 3 1.9 6 2.3 6.5 0.4 0.5 1.4 3 2.1 5.5 0.7 2.5 1.9 5.4 2.6 6.5 0.7 1.1 1.3 2.3 1.3 2.7 0 0.5-1.2 0.1-2.8-0.7-1.5-0.8-3.2-1.5-3.7-1.5-0.6 0-3-1.5-5.5-3.3-2.5-1.8-5.3-5.1-6.4-7.3-1-2.1-2.2-7.7-2.7-12.4-0.6-7.2-0.5-9.2 1.1-13.5 1.1-2.8 2.7-6 3.6-7.2zm1013.3 14c2.2 0 8.2 0.6 13.5 1.4 5.2 0.9 9.7 1.8 10 2 0.2 0.3-0.7 2.9-2.2 5.8-1.5 2.9-4.5 8-6.8 11.5-2.2 3.4-6 8.1-8.3 10.5-2.4 2.3-5.9 5-7.8 5.9-1.9 1-5.5 2.2-7.9 2.9-2.5 0.6-6.4 0.8-8.8 0.5-2.8-0.4-5.5-1.7-8-3.9-2.5-2.3-4.1-4.9-5-8-0.7-2.6-1.2-7.1-1.2-10.2 0-4.1 0.5-6 2-7.5 1.1-1.1 4.1-2.9 6.7-4.1 2.6-1.2 8.1-3.2 12.3-4.5 4.1-1.2 9.3-2.3 11.5-2.3zm-364.3 21c5.6-0.1 7.4 0.3 10.5 2.4 2.1 1.4 5.9 5.1 8.5 8.3 2.7 3.1 5.8 7.8 7 10.2 1.1 2.5 2.3 7 2.6 10 0.3 3.7-0.2 7.9-1.4 12.5-1.2 4.3-2.9 8-4.4 9.5-1.4 1.4-4.9 3.6-7.8 4.8-2.9 1.2-5.8 2.2-6.5 2.2-0.7 0.1-4.6-3-8.7-6.8-4.2-3.7-9.1-9.3-11-12.2-2-3-4.3-7.7-5.3-10.5-1-2.7-2.3-7.3-2.8-10.2-0.5-2.9-1.6-6.6-2.4-8.3-1.4-2.8-1.4-2.9 0.2-2.4 1 0.4 3 0 4.6-0.7 1.5-0.8 3.3-2.6 4-4.2 0.6-1.5 2.3-3.2 3.7-3.6 1.3-0.5 5.5-1 9.2-1zm-181.2 1.1c2.4-0.1 7.2 0.6 10.5 1.6 3.4 0.9 7.6 3 9.3 4.5 2.2 1.9 3.8 4.7 5.2 9.5 1.4 4.3 2.1 9.6 2.2 14.7 0 5.3-0.6 9.4-1.7 12-0.9 2.2-3 5.3-4.6 6.8-1.6 1.5-5.4 3.4-8.4 4.2-3.1 0.9-7.7 1.5-10.3 1.5-3.3 0-6.2-0.9-9.4-2.8-2.6-1.5-7.2-4.9-10.3-7.7-3-2.7-5.5-5.6-5.5-6.5 0-0.8-0.7-2.4-1.5-3.5-0.8-1.1-1.5-2.6-1.5-3.5 0-0.8-0.9-3.3-2-5.5-1.1-2.2-1.9-4-1.8-4.1 0.2 0 1.6-0.5 3.3-1.2 1.6-0.6 3.5-2.3 4.2-3.7 0.7-1.3 1.3-3.4 1.3-4.5 0-1.1 0.8-3.3 1.7-5 1-1.6 2.9-3.4 4.3-3.9 1.3-0.4 4.3-1.3 6.5-1.8 2.2-0.6 6-1.1 8.5-1.1zm-191.3 39.9c3-0.1 4.1 0.3 3.8 1.2-0.3 0.7-3.1 2.9-6.3 5-3.2 2-6.5 3.7-7.5 3.7-0.9 0-1.7-0.6-1.7-1.5 0-0.8 0.7-2.6 1.7-4.1 0.9-1.4 2.6-2.9 3.7-3.4 1.2-0.5 4-0.9 6.3-0.9zm19.1 5.9c0.4 0 2.2 1.4 4 3.2 1.9 1.8 5.2 6 7.4 9.3 2.3 3.3 4.7 8.2 5.4 10.8 1.1 3.8 1.1 5.7 0.2 9.5-0.7 2.6-3.3 7.9-5.8 11.7-2.5 3.9-5.8 8.4-7.3 10-1.6 1.7-2.8 3.3-2.8 3.5 0.1 0.3-1.4 1.4-3.2 2.5-1.8 1.1-3.9 2.7-4.7 3.5-0.9 0.8-2.9 2.5-4.5 3.6-1.7 1.1-8.5 4.4-15.3 7.3-6.7 2.8-12.8 5.1-13.5 5.1-0.7 0-2.1 0.6-3.2 1.4-1.1 0.7-4.7 2-8 3-3.3 0.9-7.8 1.6-10 1.6-2.2 0-5.6-0.4-7.5-1-2-0.5-5.2-2.6-7.3-4.7-2-2.1-5.3-5.8-7.4-8.3-2-2.4-4.4-6.3-5.4-8.5-1-2.2-2.1-5.8-2.5-8-0.7-3.4-0.3-4.7 2.4-9.2 1.7-2.9 3.7-5.3 4.4-5.3 0.7 0 2.8-1.7 4.7-3.8 2-2.1 5.4-4.8 7.6-5.9 2.2-1.1 7.1-3 11-4.1 3.8-1.1 11.5-2.5 17-3.2 7-0.8 12-0.9 17-0.2 4.3 0.6 9.5 2.2 13.5 4.2 6.1 3.1 6.7 3.2 9.8 1.9 1.8-0.8 3.7-2.5 4.3-3.9 0.6-1.3 0.8-3.5 0.5-4.7-0.4-1.3-2.1-3.4-3.9-4.7-1.8-1.3-4.5-2.7-6-3-1.5-0.3-2.7-1-2.7-1.6 0-0.5 0.3-1 0.7-1 0.4 0 2.1-1.2 3.8-2.7 1.7-1.5 3.9-4 4.9-5.5 1-1.5 2.1-2.8 2.4-2.8zm692.9 128.1c1.8 0 4.4 0.4 5.8 0.9 1.3 0.6 4.1 2.5 6.1 4.3 2 1.8 4.6 5.3 5.8 7.7 1.7 3.7 2.1 6.3 2 14.5 0 5.5-0.7 12.1-1.4 14.5-0.7 2.5-2.7 7.5-4.5 11-1.7 3.6-5.9 10.6-9.1 15.5-3.3 5-7.6 11.6-9.5 14.8-1.9 3.2-3.8 5.7-4.2 5.7-0.4 0-2.1 2.2-3.7 4.8-1.6 2.6-4.2 6.1-5.7 7.9-1.6 1.7-5 6.8-12.3 19.3l-4.9-3.7c-2.6-2.1-6.6-5.1-8.7-6.8-2.2-1.6-8-6.3-12.9-10.5-4.9-4.1-12.3-11.6-16.5-16.6-4.1-5.1-8.9-10.9-10.6-13-1.7-2.1-5.3-7.2-8.1-11.4-3.7-5.6-5.6-9.9-7.6-17.5-1.5-5.5-2.7-11.4-2.7-13.2 0-1.8 0.6-3.9 1.5-4.8 0.8-0.8 3.6-2.3 6.2-3.2 3.6-1.3 7.8-1.8 17.3-1.8 10.4 0 13 0.4 15.5 1.9 1.6 1 4.5 3.7 9.7 10.1l-0.6 8.8c-0.6 8.7-0.6 8.7 2.1 10.8 1.5 1.2 3.2 3.1 3.8 4.2 0.5 1.2 2.1 2.8 3.5 3.6 2.1 1.3 2.9 1.3 5.8 0.1 1.8-0.8 3.5-2.4 3.9-3.5 0.3-1.1 0.6-6.9 0.7-13 0.2-10.3 0.4-11.4 3.5-17.5 2.1-4.1 5.9-9 10.4-13.5 4.8-4.7 8.7-7.6 11.7-8.7 2.4-0.9 5.9-1.7 7.7-1.7zm-810.2 66c3.4-0.1 6.5 0.7 10 2.4 2.7 1.3 6.1 3.5 7.5 4.8 1.3 1.4 3.5 4.5 4.8 6.9 1.3 2.4 3 6.4 3.8 8.8 0.7 2.5 1.4 6.4 1.4 8.8 0 2.3-0.7 6.8-1.6 10-0.9 3.1-3.1 9-5 13-1.9 4-3.9 7.2-4.4 7.2-0.6 0-2.2 2.4-3.6 5.3-1.4 2.9-4.7 8.6-7.3 12.7-2.7 4.2-6.7 10.5-8.9 14-2.3 3.6-5.3 7.9-6.8 9.5-1.5 1.7-3.4 4.5-5.4 9.5l-5.3-4.3c-2.9-2.4-7.3-5.7-9.7-7.4-2.5-1.6-6.1-3.9-8-5-2-1.1-4.4-2.5-5.5-3.1-1.1-0.6-4.3-2-7-3.2-2.8-1.1-5.8-2.5-6.8-3-0.9-0.5-2.5-1.4-3.5-1.9-0.9-0.5-3.5-1.8-5.7-2.7-2.2-1-7.4-5.2-11.5-9.4-5.8-6-8.1-9.2-10-14.1-2.1-5.4-2.5-8-2.5-16.9 0-9.9 0.2-10.9 2.7-14.8 1.7-2.5 4.3-4.8 6.5-5.8 2.1-0.9 6.5-1.8 9.8-2.1 4.1-0.3 6.9 0 9 1 1.6 0.8 4.3 2.1 5.9 2.9 1.7 0.7 4.6 2.9 6.5 4.9 2 1.9 4.4 5.3 5.5 7.5 1 2.1 2.5 5.2 3.2 6.7 0.8 1.5 1.4 3.4 1.4 4.2 0 0.9 1.4 3.1 3.2 5 1.8 1.9 4.1 3.5 5 3.5 1 0 2.9-0.5 4.3-1.2 1.4-0.7 3-2.4 3.6-3.8 0.6-1.3 0.8-3.3 0.5-4.2-0.4-1-0.1-2.9 0.6-4.3 1.1-2.2 1-3.1-0.7-6.2-1.4-2.5-2-5.1-1.8-8.7 0.1-2.8 0.9-7.3 1.7-10.1 1.1-3.8 2.6-6 6.3-9.2 2.6-2.4 6.6-4.9 8.8-5.7 2.2-0.8 6.2-1.5 9-1.5zm220.2 15.4c0.2 1.7 0.2 4.8 0 7-0.2 2.2-0.4 0.9-0.4-3 0-3.8 0.2-5.6 0.4-4zm408.3 6.5c5.8 0 8 0.4 10 1.8 1.6 1.3 2.9 3.8 3.8 7.3 0.8 3.1 1.2 8.5 1 12.4-0.3 6-0.9 7.8-3.8 12-1.9 2.8-4.1 5.6-5 6.2-0.8 0.7-2.3 1.3-3.3 1.3-0.9 0-2.9-1.2-4.3-2.7-1.5-1.5-4.9-6.1-12.6-17.8l0.3-7.8c0.3-7.3 0.6-8 3.4-10.3 2.5-2 4.1-2.4 10.5-2.4zm-75.3 11c1.5 0.1 4.6 0.6 6.8 1.2 2.2 0.7 4.8 1.9 5.8 2.7 1 1 1.7 3 1.7 5.1 0 2-0.5 5.3-1.1 7.5-0.6 2.2-2 6.1-3.2 8.5-1.1 2.5-3.1 5.5-4.4 6.8-1.3 1.2-2.8 2.2-3.3 2.2-0.6 0-2.5-0.7-4.3-1.6-1.8-0.9-3.9-2-4.7-2.3-0.9-0.4-2.3-2.3-3.3-4.1-1.2-2.4-1.7-5.7-1.7-10.3 0.1-6.8 0.1-7 4.5-11.3 3.1-3.1 5.2-4.4 7.2-4.4zm-114 49.3c0.7 0.7 2 3.6 2.8 6.5 0.8 2.9 1.8 9.4 2.1 14.5 0.5 7.8 0.3 10.5-1.6 17.2-1.2 4.4-3.3 9.9-4.6 12.3-2.3 4-2.6 4.1-4.7 2.9-1.2-0.8-2.9-2.7-3.7-4.3-0.8-1.6-1.6-6.7-2.3-19.9l5.7-11c5.1-9.8 5.6-11.3 4.7-13.7-0.6-1.5-0.8-3.5-0.5-4.3 0.6-1.2 1-1.3 2.1-0.2zm611.5 16.4c1.7 1 4.6 3.9 6.4 6.3 1.9 2.5 3.7 5.7 4 7 0.4 1.4 1.3 3.4 2 4.5 0.8 1.1 1.4 2.6 1.4 3.3 0 0.7 0.8 3.1 1.9 5.5 1 2.3 2.9 8 4.2 12.7 2 7.2 2.2 8.5 0.9 8.9-0.9 0.3-2.6 1.7-3.8 3.1-1.3 1.4-3.8 5.7-5.7 9.5-1.9 3.9-4.5 8.2-5.8 9.5-1.3 1.4-3.3 3.8-4.3 5.4-1.1 1.6-4.6 4.4-7.9 6.3-5.1 3-6.9 3.5-12 3.4-5.2 0-6.6-0.5-10.5-3.4-3.9-2.9-4.8-4.1-6.3-9.7-1-3.6-2.3-12.8-3-20.5-1.1-12.9-1-14.3 0.7-18.5 1-2.4 2.7-6.7 3.9-9.4 1.2-2.7 4-6.9 6.2-9.2 3-3.3 6.1-5.1 13-7.8 6.6-2.6 9.3-4.2 10.3-6.1 1.3-2.6 1.3-2.6 4.4-0.8zm26.3 64.3l1.3 3.3c1.1 2.4 1.3 6.2 0.8 15.2-0.3 6.6-1.2 14.1-2 16.5-0.7 2.5-2.3 6.6-3.5 9-1.2 2.5-3.5 6.1-5.2 8-1.7 2-4.9 5.5-7.2 7.9-2.3 2.5-6.3 5.4-8.7 6.5-3.4 1.6-6.6 2.1-12.6 2.1-7 0-8.6-0.3-12-2.5-2.2-1.5-6-5.8-8.9-10-2.7-4.1-6.2-10.8-7.8-15-1.6-4.1-3.6-8.7-4.3-10.2-0.8-1.5-1.4-3.7-1.4-4.8 0-1.8 0.2-1.8 3.2 0.8 1.8 1.5 5.8 4.3 8.8 6.1 5.1 3.2 6 3.5 13.5 3.4 4.4-0.1 9.3-0.5 11-1 1.6-0.5 6.6-3 11-5.6 4.9-2.9 8.7-6 10-7.9 1.1-1.8 3.2-4.6 4.7-6.3 1.6-1.6 4.3-5.8 6-9.2zm261.2 126c1.8 0 5 0.8 7.1 1.9 2.1 1 5.5 3.6 7.5 5.7 2.1 2.2 5.6 6.6 7.8 9.9 3.7 5.6 4 6.9 5.9 20.5 1.1 8 2.1 16.7 2.1 19.5 0 2.7-1 8.4-2.1 12.5-1.1 4.1-2.6 8.8-3.4 10.5-0.7 1.6-2 4.3-2.7 5.9-0.7 1.6-3.9 5.5-7.1 8.8-3.3 3.3-7.8 6.7-10.5 7.8-2.6 1.1-6.7 2-9 2-3.9 0-4.7-0.5-9-5.3-3.8-4.3-5.1-6.7-6.8-12.8-1.5-5.7-1.9-10.5-1.9-20.9 0-12.5 0.3-14.5 3.9-27.5 2.1-7.7 5.8-19 8.3-25 2.4-6.1 4.9-11.6 5.4-12.3 0.6-0.6 2.6-1.2 4.5-1.2zm-126.8 39.5c2 0.3 6.3 1.5 9.6 2.5 3.3 1.1 8 3.3 10.3 5 2.3 1.6 8.8 8.5 14.4 15.2 5.6 6.8 10.4 13 10.7 13.8 0.2 0.8 1.4 2.8 2.5 4.5 1.1 1.6 2.9 6.1 4 10 1.3 4.8 1.7 8.4 1.2 11.5-0.3 2.5-1.3 5.8-2 7.5-0.8 1.6-2.5 4.1-3.8 5.5-1.3 1.4-3.5 4.1-4.8 6-1.4 1.9-3.6 4.7-5 6.1-1.3 1.5-6.2 5-10.7 7.8-4.5 2.8-9.9 5.4-15.8 6.3l-1.2-9.4c-0.6-5.1-1.4-16.7-1.7-25.8-0.3-9.1-1.2-20.8-2-26-0.8-5.2-1.9-12.4-2.6-16-0.6-3.6-1.8-8.1-2.6-10-0.9-1.9-2.2-5.5-2.9-8-0.8-2.5-1.4-5.1-1.3-5.9 0.1-1 1-1.2 3.7-0.6zm-1014.7 213.5c0.5 0 1.5 0.2 2.3 0.5 1.1 0.4 1.3 1.2 0.8 2.8-0.4 1.3-1.7 3.5-2.8 4.9-1.1 1.4-3.4 2.8-5.2 3.1-1.9 0.4-3.3 0.3-3.3-0.3 0-0.6 0.5-2.2 1.1-3.8 0.6-1.5 2.2-3.7 3.7-5 1.4-1.2 3-2.2 3.4-2.2zm194.9 38.6c0.5 0.4 0.7 2.5 0.6 4.8-0.2 2.2-1.1 5.2-2.1 6.6-1.7 2.5-1.7 2.5-1.1-3 0.4-3 0.9-6.3 1.2-7.3 0.3-0.9 0.9-1.4 1.4-1.1z"/>
	</g>
</svg>